<svg version="1.1" id="Layer_1" xmlns="http://www.w3.org/2000/svg" xmlns:xlink="http://www.w3.org/1999/xlink" x="0px" y="0px" style="enable-background:new 0 0 800 800;" xml:space="preserve" viewBox="141.1 134.12 516.82 532.05"><path d="M653.45,251.93c-5.81-5.67-15.13-5.55-20.8,0.27c-27.99,28.73-59.08,38.5-80.1,41.66c-7.16-8.86-15.57-16.99-25.07-24.1  c-12.6-9.43-26.18-16.34-39.99-20.82c-3.55-20.76-4.34-55.45,16.74-92.87c3.99-7.08,1.48-16.05-5.6-20.03  c-7.08-3.99-16.05-1.48-20.03,5.6c-21.89,38.88-24.16,75.57-21.51,101.43c-32.83-2.13-63.79,9.59-82.58,34.68  c-2.98,3.98-5.53,8.2-7.73,12.58c-46.6-14.46-113.31-20.86-170.83-1.52c-42.07,14.15-61.76,43.5-52.65,78.51  c8.26,31.75,40.27,63.21,81.44,80.11c-10.1,21.59-14.3,44.92-11.9,67.83c2.95,28.18,15.65,54.24,37.03,76.59l-11.63,64.32  l58.42-29.28c20.35,10.53,41.3,15.93,62.13,15.93c7.29,0,14.57-0.66,21.8-1.98c22.68-4.16,43.92-14.79,61.81-30.6  c27.2,34.15,65.4,55.92,97.83,55.92c0.74,0,1.48-0.01,2.22-0.04c36.16-1.13,58.77-28.28,60.5-72.64  c2.36-60.8-22.73-123.18-49.81-163.81c3.54-3.32,6.84-6.92,9.79-10.87c15.93-21.27,20.82-48.66,13.78-77.12  c-1.78-7.21-4.3-14.27-7.46-21.1c24.69-5.63,56.04-18.62,84.5-47.83C659.39,266.91,659.27,257.59,653.45,251.93z M466.38,422.86  c7.78,13.57,23.41,43.07,35.41,80.08l-0.46-0.08c-0.08,0.42-7.76,39.18-55.82,53.52c-4.7-11.18-7.74-22.23-8.75-32.16  C432.47,481.95,447.76,441.7,466.38,422.86z M422.87,435.33c-10.18,21.59-16.1,47.51-16.24,73.62c-9.35,1.25-28.29,1.25-48.06-13.56  c-19.66-14.72-24.88-32.61-26.25-42.04c25.01-7.48,48.24-20.44,66.09-36.28c3.65,3.39,7.48,6.65,11.55,9.69  C414.13,429.89,418.46,432.72,422.87,435.33z M311.32,360.32c38.89,1.09,71.59,7.78,86.8,11.44  c-12.83,23.17-47.15,49.19-88.91,56.98c-11.26,2.1-22.45,2.44-33.33,1.44c-0.22-50.33,34.08-68.61,35.66-69.42L311.32,360.32z   M274.14,306.31c60.03,0,115.08,19.97,124.17,31.49c4.96,6.29,6.46,13.42,4.65,21.64c-13.13-3.28-41.18-9.37-76.14-11.63  c-23.13-1.49-51.61-1.3-81.07,3.61c-17.54-7.6-28.11-24.67-33.69-36.82C232.23,308.71,253.47,306.31,274.14,306.31z M171.76,359.9  c-4.69-18.05,4.67-31.84,27.8-41.09c4.84,10.93,13.39,25.79,27.18,36.43c-16.71,4-33.42,9.74-49.4,17.73  C174.77,368.55,172.87,364.15,171.76,359.9z M184.93,383.79c33.64-16.44,71.12-22.52,105.58-23.47  c-12.22,11.63-27.39,33.08-27.73,67.98C229.89,421.87,201.22,403.52,184.93,383.79z M375.28,611.88  c-28.11,5.14-57.78-3.21-85.8-24.19l0,0c-39.39-29.49-63.54-79.99-36.5-131.43c4.63,1.02,9.31,1.88,14.05,2.5  c2.83,25.27,15.89,61.67,52.36,88.97c27.64,20.69,56.61,27.07,79.94,27.07c7.49,0,14.39-0.66,20.49-1.71  c1.86,4.22,3.92,8.32,6.11,12.34C411.4,599.24,393.92,608.46,375.28,611.88z M514.73,631.67c-26.44-10.56-49.45-36.3-63.57-63.33  c32.75-10.26,48.85-30.58,56.5-45.44C516.52,556.5,521.25,594.49,514.73,631.67z M541.52,636.7c-4.79,0.15-9.53-0.3-14.2-1.23  c3.24-17.74,4.06-35.56,3.17-52.87c14.1,10.24,30.77,14.27,42.62,15.85C570.76,623.24,560.16,636.12,541.52,636.7z M573.65,585.27  c-13.23-1.93-32.6-7.25-44.84-21.95c-3.59-29.66-11.42-57.03-19.37-78.79c-12.04-32.98-25.8-58.17-32.63-69.81  c4.24-2.33,8.45-3.51,12.67-3.51c3.13,0,6.26,0.64,9.42,1.91C517.2,420.46,573.54,503.2,573.65,585.27z"/></svg>