<?xml version="1.0" encoding="utf-8"?>
<!-- Generator: Adobe Illustrator 25.4.1, SVG Export Plug-In . SVG Version: 6.00 Build 0)  -->
<svg version="1.1" id="Layer_1" xmlns="http://www.w3.org/2000/svg" xmlns:xlink="http://www.w3.org/1999/xlink" x="0px" y="0px"
	 viewBox="0 0 1163.55 1128.22" style="enable-background:new 0 0 1163.55 1128.22;" xml:space="preserve">
<style type="text/css">
	.st0{opacity:0.1;fill:#B2B2B2;}
	.st1{fill:#F5F6F2;}
	.st2{fill:#353535;}
	.st3{fill:#6AD7E5;enable-background:new    ;}
	.st4{fill:#5AC4CC;enable-background:new    ;}
	.st5{fill:#F6D2A2;enable-background:new    ;}
	.st6{fill:#FFFFFF;}
	.st7{opacity:0.4;fill:#3FA9F5;}
	.st8{fill:#EAEAEA;}
	.st9{fill:#3FA9F5;}
	.st10{fill:#C98A71;}
	.st11{fill:#B57D64;}
	.st12{fill:url(#honey-fill_00000101798613600514606140000011368602082329766333_);}
	.st13{fill:#ED9514;}
	.st14{fill:#FFAE0B;}
	.st15{fill:#FBD528;}
	.st16{fill:#FDC924;}
	.st17{fill:#FFBE08;}
	.st18{fill:url(#SVGID_1_);}
	.st19{fill:url(#SVGID_00000007423551361776189650000009934159544166434735_);}
	.st20{fill:url(#SVGID_00000132090399014271612000000010518347531147743116_);}
	.st21{fill:url(#SVGID_00000021113494249328171120000007420835429852217779_);}
	.st22{fill:url(#SVGID_00000012451459481747628830000006062085529015241888_);}
	.st23{fill:url(#SVGID_00000137818892375816345860000011238910615435968696_);}
	.st24{fill:url(#SVGID_00000173851542895903703270000011585150673817013935_);}
	.st25{fill:url(#SVGID_00000144316360201033580730000014127708888900534919_);}
	.st26{fill:url(#SVGID_00000166678051755908134460000007859676170076012463_);}
	.st27{fill:url(#SVGID_00000075164632730769758230000016084742018761887872_);}
	.st28{fill:url(#SVGID_00000075847131253733953210000012917981349229494939_);}
	.st29{fill:url(#SVGID_00000041288506758200299280000011340763228136250760_);}
	.st30{fill:url(#SVGID_00000173862831202021333970000000167051998426845097_);}
	.st31{fill:url(#SVGID_00000044140724902089375840000006502687802885978037_);}
	.st32{fill:#E0712E;}
	.st33{enable-background:new    ;}
	.st34{fill:#FFC200;}
	.st35{fill:#D9F1FD;enable-background:new    ;}
	.st36{fill:#00AEEF;enable-background:new    ;}
	.st37{opacity:0.3;fill:#FCFCFC;}
	.st38{opacity:0.2;fill:#FCFCFC;}
	.st39{fill:#DBDBDB;}
	.st40{fill:#FDC024;}
	.st41{fill:#F2A711;}
	.st42{fill:#D8D8D8;}
</style>
<g>
	<ellipse class="st0" cx="585.09" cy="1029.82" rx="288.87" ry="29.06"/>
	<path class="st1" d="M815.19,600.04c4.1-1.98,2.95-7.76,3.88-10.2c7.66-20.13-35.32-31.91-99.23-37.12
		c-6.77-1.5-11.16,4.25-6.27,7.94C764.1,567.36,820.4,573.42,815.19,600.04z"/>
	<path class="st2" d="M813.15,602.7l0.58-2.94c0.81-4.15,0.04-7.79-2.37-11.12c-10.81-15.03-51.51-20.38-90.88-25.55l-7.5-0.99
		l-0.32-0.24c-2.47-1.86-3.31-4.52-2.2-6.92c1.17-2.53,4.67-4.76,9.6-3.7c57.51,4.7,90.91,13.82,99.29,27.11
		c2.36,3.74,2.73,7.79,1.12,12.03c-0.2,0.53-0.29,1.48-0.38,2.49c-0.26,2.86-0.61,6.77-4.25,8.53L813.15,602.7z M714.18,559.23
		l6.69,0.88c39.99,5.25,81.35,10.68,92.92,26.77c1.71,2.38,2.74,4.94,3.1,7.67c0.09-0.6,0.16-1.26,0.22-1.96
		c0.11-1.22,0.21-2.36,0.56-3.28c1.28-3.36,1-6.42-0.85-9.36c-5.4-8.56-26.64-19.98-97.1-25.73l-0.2-0.03
		c-3.18-0.71-5.63,0.51-6.33,2.01C712.72,557.21,713.07,558.27,714.18,559.23z"/>
	<path class="st1" d="M310.29,603.83c-4.1-1.98-2.95-7.76-3.88-10.2c-7.66-20.13,35.32-31.91,99.23-37.12
		c6.77-1.5,11.16,4.25,6.27,7.94C361.39,571.14,305.09,577.2,310.29,603.83z"/>
	<path class="st2" d="M312.34,606.48l-2.7-1.3c-3.64-1.76-3.99-5.67-4.25-8.53c-0.09-1-0.18-1.95-0.38-2.49
		c-1.62-4.24-4.61-9.09-2.25-12.82c8.39-13.29,45.16-21.62,102.67-26.32c4.93-1.05,8.43,1.17,9.6,3.7c1.11,2.41,0.27,5.06-2.2,6.92
		l-0.32,0.24l-7.5,0.99c-39.36,5.17-81.87,9.95-92.68,24.99c-2.4,3.34-1.37,7.54-0.56,11.69L312.34,606.48z M407.79,557.76
		c-0.57,0-1.18,0.06-1.82,0.21l-0.2,0.03c-70.47,5.75-95.07,16.37-100.47,24.94c-1.85,2.94,1.24,6.8,2.52,10.16
		c0.35,0.92,0.45,2.07,0.56,3.29c0.06,0.7,0.13,1.35,0.22,1.96c0.35-2.73-0.29-5.98,1.42-8.35c11.57-16.08,54.61-20.84,94.6-26.09
		l6.69-0.88c1.11-0.95,1.46-2.02,0.99-3.04C411.74,558.78,410.06,557.76,407.79,557.76z"/>
	<path id="_x38__00000145767724010045145810000004296665259818720385_" class="st3" d="M332.35,341.43c0,0-22.98,9.91-22.32,23.12
		c0.58,11.51,15.2,34.31,51.73,39.98l1.44,1.3c0,0-59.81,319.77-12.88,466.68c0,0,6.61,50.86,45.58,83.23
		c38.97,32.37,112.95,40.62,166.46,37.65c26.55-1.48,94.63-5.78,124.84-44.59c20.53-26.36,24.01-68.31,23.92-106.35l9.33-174.05
		c0,0-0.49-47.5,12.99-144.66l14.2-123.19c-139.64,7.45-276.08-0.35-400.62-65.03L332.35,341.43"/>
	<path class="st4" d="M600.53,730.59c-8.92-2.51-17.12-8.65-21.36-16.55c-2.94-5.47-7.03-13.04-14.61-12.88
		c-0.16,0-0.33,0.03-0.5,0.06c0.07-0.21,0.14-0.4,0.17-0.56c1.55-6.78-6.79-13.14-14.75-12.97s-24.64,30-34.44,37.26
		c-9.79,7.26-21.66,16.93-3.68,26.26c2.81,1.46,6.32,0.9,10.19-1.02c1.02,2.23,3.57,4.5,8.29,6.78
		c6.24,3.02,38.16,33.24,61.49,18.97C616.96,760.27,614,734.38,600.53,730.59z"/>
	<path class="st4" d="M686.38,523.45c-2.52-1.74-7.6-3.79-15.77-5.44c-8.17-1.65-18.68-4.56-18.68-4.56
		c-11.86,1.99-21.56,6.79-21.88,19.64s12.93,18.13,16.62,37.23c0.95,4.89,2.64,8,7.6,7.93c4.83-0.08,8.12-4.95,8.92-9.08
		s1.46-13.94,1.46-13.94l0.56,0.89c-0.94,5.7,16.13-2.05,16.13-2.05l-0.51-0.89c8.86-2.73,14.96-7.98,15.51-14.47
		C696.83,533.01,692.74,527.83,686.38,523.45z"/>
	<path id="path-shadow" class="st4" d="M719.45,655.03c-137.13,36.88-307.25,18.37-384.03-10.52c0.06-3.86-0.46-5.96,0.39-11.34
		c88.06,36.03,258.81,43.27,383.42,10.96C719.35,649.23,719.84,650.92,719.45,655.03z"/>
	<path class="st5" d="M441.36,979.53c-0.87,2.63,17.62,48.21,30.5,59.44c12.88,11.23,36.99,10.24,40.29-6.61
		c3.3-16.84-8.06-15.37-28.8-42.86C469.49,988.91,455.5,985.82,441.36,979.53z"/>
	<path d="M492.19,1047.9c-7.6,0-15.55-2.78-21.32-7.81c-7.6-6.62-16.28-23.79-20.78-33.44c-2.93-6.28-11.08-24.82-10.16-27.6
		l2.85,0.95c0.04-0.13,0.05-0.23,0.05-0.23c-0.05,3.64,17.55,47.19,30.02,58.06c7.24,6.31,18.74,8.75,27.35,5.8
		c4.02-1.38,9.1-4.5,10.48-11.56c1.88-9.61-1.08-12.45-9.01-20.04c-4.86-4.66-11.53-11.04-19.52-21.63l2.39-1.81
		c7.84,10.4,14.41,16.68,19.2,21.27c8.04,7.7,12.08,11.57,9.88,22.79c-1.3,6.61-5.72,11.51-12.46,13.82
		C498.35,1047.44,495.3,1047.9,492.19,1047.9z"/>
	<path class="st5" d="M635.83,982.76c6.44,16.2,23.51,41.01,39.46,45.61c20.73,5.99,30.68-8.02,28.6-17.15
		c-2.81-12.34-22.27-12.35-38.89-41.85C655.65,975.29,645.99,979.97,635.83,982.76z"/>
	<path d="M684.82,1031.34c-2.9,0-6.21-0.44-9.95-1.52c-16.91-4.88-34.12-30.63-40.43-46.5l2.79-1.11
		c6.33,15.92,23.22,40.32,38.48,44.73c12.52,3.62,19.42-0.61,22.42-3.44c3.51-3.31,5.19-8,4.3-11.94
		c-1.09-4.77-5.17-7.63-10.81-11.58c-7.73-5.41-18.33-12.83-27.93-29.87l2.61-1.47c9.27,16.45,19.54,23.63,27.03,28.88
		c5.96,4.17,10.67,7.47,12.01,13.37c1.13,4.95-0.9,10.76-5.16,14.78C697.65,1028.07,692.73,1031.34,684.82,1031.34z"/>
	<path d="M497.21,1046.72l-2.79-1.11c0.09-0.24,2.24-5.86-1.47-10.87l2.41-1.79C500.1,1039.33,497.33,1046.42,497.21,1046.72z"/>
	<path d="M689.95,1029.88l-2.93-0.64c0.56-2.54,1.42-9.69-1.21-12.32l2.12-2.12C692.19,1019.04,690.19,1028.78,689.95,1029.88z"/>
	<path class="st4" d="M500.12,396.62c-7.76,0-15.31,0.92-22.53,2.65c-6.14-11.31-16.29-19.76-31.74-24.28
		c-33.64-9.84-66.63-22.76-98.83-39.48l-14.67,5.91c0,0-22.98,9.91-22.32,23.12c0.58,11.51,15.2,34.31,51.73,39.98l1.44,1.3
		c0,0-59.81,319.77-12.88,466.68c0,0,6.61,50.86,45.58,83.23c38.97,32.37,74.75,21.81,56.81-69.36
		c-5.13-26.09-27.08-152.59-23.78-227.23c1-22.62,11.81-55.03,23.7-90c13.95,7.96,30.18,12.53,47.49,12.53
		c52.18,0,94.48-41.43,94.48-92.53C594.6,438.05,552.3,396.62,500.12,396.62z"/>
	<ellipse class="st6" cx="518.12" cy="480.15" rx="94.48" ry="92.53"/>
	<path d="M518.12,574.18c-52.93,0-95.98-42.18-95.98-94.03s43.06-94.03,95.98-94.03s95.98,42.18,95.98,94.03
		S571.04,574.18,518.12,574.18z M518.12,389.12c-51.27,0-92.98,40.83-92.98,91.03c0,50.19,41.71,91.03,92.98,91.03
		s92.98-40.83,92.98-91.03C611.1,429.95,569.39,389.12,518.12,389.12z"/>
	<path class="st6" d="M789.1,453.67c0-36.48-25.69-66.05-57.37-66.05c-15.79,0-30.08,7.34-40.46,19.22
		c-5.16,11.67-8.11,25.12-8.11,39.45c0,27.33,10.7,51.49,27.07,66.14c4.06,3.64,9.13,6.03,14.53,6.79c2.28,0.32,4.6,0.49,6.96,0.49
		C763.42,519.72,789.1,490.15,789.1,453.67z"/>
	<path d="M731.73,521.22c-2.39,0-4.8-0.17-7.17-0.5c-5.68-0.8-10.98-3.28-15.32-7.16c-17.27-15.44-27.57-40.59-27.57-67.26
		c0-14.01,2.85-27.86,8.24-40.06l0.09-0.21l0.15-0.17c11.11-12.73,25.88-19.74,41.59-19.74c32.46,0,58.87,30.3,58.87,67.55
		S764.19,521.22,731.73,521.22z M692.55,407.66c-5.16,11.77-7.89,25.12-7.89,38.64c0,25.83,9.93,50.14,26.57,65.02
		c3.9,3.49,8.65,5.71,13.74,6.43c2.23,0.31,4.5,0.47,6.75,0.47c30.81,0,55.87-28.96,55.87-64.55s-25.06-64.55-55.87-64.55
		C716.98,389.12,703.07,395.7,692.55,407.66z"/>
	<circle cx="525.59" cy="476.13" r="22.46"/>
	<circle class="st6" cx="530.66" cy="465.92" r="11.23"/>
	<ellipse cx="765.94" cy="449.13" rx="13.61" ry="16.84"/>
	<circle class="st6" cx="768.51" cy="440.63" r="8.35"/>
	<path d="M542.18,995.44c-50.33,0-112.66-9.83-147.24-38.54c-37.96-31.53-45.65-81.02-46.09-84.05
		c-24.27-76.14-19.48-199.12-11.18-288.9c8.99-97.25,23.91-177.59,24.06-178.39l2.95,0.55c-0.15,0.8-15.05,81.02-24.02,178.14
		c-8.28,89.55-13.07,212.17,11.1,287.81l0.06,0.26c0.07,0.5,7,50.67,45.05,82.27c38.73,32.17,113.31,40.21,165.42,37.31
		c93.52-5.19,116.27-34.41,123.74-44.01c21.08-27.07,23.69-70.56,23.6-105.42l3-0.01c0.08,35.34-2.59,79.48-24.23,107.27
		c-31.06,39.89-102.48,43.86-125.94,45.16C556,995.24,549.2,995.44,542.18,995.44z"/>
	<path d="M379.39,407.33c-51.42,0-70.19-29.33-70.86-42.71c-0.7-14.09,22.25-24.15,23.23-24.57l1.19,2.75
		c-0.22,0.09-22.02,9.65-21.42,21.67c0.7,13.9,21.31,39.86,67.86,39.86V407.33z"/>
	<path class="st7" d="M376,378.58c0,0-15.44-9.08-25.51-10.9c0,0,2.26,8.97,9.52,11.83C367.28,382.38,376,378.58,376,378.58z"/>
	<path d="M358.08,385.96l-2.81-1.05c0.13-0.36,3.36-8.75,10.9-12.52l1.34,2.68C361.02,378.32,358.11,385.89,358.08,385.96z"/>
	<path d="M375.24,379.88c-0.15-0.09-15.33-8.97-25.02-10.72l0.53-2.95c10.22,1.84,25.37,10.71,26.01,11.08L375.24,379.88z"/>
	<path class="st6" d="M656.64,547.35c0,0-3.45,18-2.96,22.95c0.5,4.95,2.64,8,7.6,7.93c4.83-0.08,8.12-4.95,8.92-9.08
		c0.81-4.13,2.46-18.94,2.46-18.94l0.56,0.89c-0.94,5.7-2.29,14.75-1.98,18.05c0.47,4.95,2.52,8,7.24,7.93
		c4.61-0.08,7.74-4.95,8.51-9.08c0.77-4.13,2.35-18.94,2.35-18.94l-1.98-3.44c0,0-7.1,1.65-14.61,0.5
		c-7.51-1.16-15.36-2.56-15.36-2.56L656.64,547.35z"/>
	<path d="M661.1,579.74c-3.69,0-8.15-1.64-8.92-9.28c-0.51-5.11,2.84-22.64,2.98-23.39l2.95,0.57c-0.95,4.95-3.33,18.64-2.94,22.52
		c0.47,4.67,2.28,6.66,6.08,6.58c3.87-0.06,6.74-4.1,7.48-7.87c0.79-4.02,2.43-18.67,2.44-18.81l2.98,0.33
		c-0.07,0.61-1.67,14.92-2.48,19.06c-0.99,5.05-4.87,10.21-10.37,10.29C661.23,579.73,661.17,579.74,661.1,579.74z"/>
	<path d="M678.32,578.58c-3.55,0-7.84-1.64-8.57-9.29c-0.32-3.34,0.91-11.87,1.99-18.43l2.96,0.49c-1.47,8.9-2.18,15.34-1.96,17.66
		c0.56,5.86,3.21,6.64,5.73,6.57c3.64-0.06,6.36-4.09,7.06-7.86c0.75-4.02,2.31-18.67,2.33-18.82l2.98,0.32
		c-0.06,0.61-1.59,14.91-2.36,19.05c-0.95,5.06-4.67,10.22-9.96,10.31C678.45,578.58,678.39,578.58,678.32,578.58z"/>
	<path class="st5" d="M694.38,518.45c6.36,4.39,10.44,9.56,9.96,15.26c-0.9,10.56-16.46,17.85-34.77,16.3
		c-18.31-1.55-32.42-11.37-31.52-21.93c0.66-7.79,9.32-13.81,21.18-15.8c0,0,11.21-0.93,19.38,0.73
		C686.79,514.66,691.86,516.71,694.38,518.45z"/>
	<path d="M674.48,551.72c-1.66,0-3.34-0.07-5.03-0.21c-9.11-0.77-17.52-3.56-23.69-7.85c-6.41-4.46-9.68-10.04-9.2-15.7
		c0.7-8.25,9.5-14.99,22.43-17.15l0.5,2.96c-11.53,1.93-19.35,7.61-19.93,14.45c-0.39,4.55,2.43,9.16,7.92,12.98
		c5.74,3.99,13.64,6.59,22.23,7.32c8.6,0.73,16.82-0.5,23.15-3.47c6.06-2.84,9.61-6.91,10-11.46c0.41-4.89-2.96-9.94-9.26-13.86
		l1.59-2.55c7.29,4.54,11.18,10.61,10.66,16.66c-0.48,5.66-4.64,10.61-11.71,13.92C688.59,550.35,681.75,551.72,674.48,551.72z"/>
	<ellipse transform="matrix(0.1721 -0.9851 0.9851 0.1721 52.1478 1093.511)" cx="676.66" cy="515.73" rx="13.05" ry="17.5"/>
	<path class="st5" d="M722.01,612.86c0,0,30.21,29.59,54.85,35.53c24.94,6.02,27.17,13.4,26.82,20.01
		c-0.52,9.83-12.44,15.67-24.13,15.52c-6.83-0.08-29.15,0.8-60.7-16.62L722.01,612.86z"/>
	<path d="M776.17,685.43c-9.23,0-28.51-0.75-56.43-15.71l1.42-2.64c28.93,15.49,48.3,15.39,56.56,15.35c0.7,0,1.31-0.01,1.85,0
		c0.82,0.01,3.29,0.04,4.29-4.95c1.57-7.8-2.63-25.5-7.47-27.65c-10.4-2.54-22.88-9.35-37.1-20.23
		c-10.58-8.1-18.25-15.58-18.32-15.66l2.1-2.14c0.3,0.29,30.2,29.37,54.15,35.15l0.21,0.07c6.37,2.58,11.3,21.48,9.38,31.06
		c-1.28,6.38-5.01,7.36-7.19,7.36c-0.03,0-0.06,0-0.09,0c-0.52-0.01-1.12,0-1.8,0C777.25,685.42,776.73,685.43,776.17,685.43z"/>
	<path class="st8" d="M752.19,702.76c6.24,3.02,38.16,33.24,61.49,18.97c25.62-15.68,22.67-41.56,9.19-45.35
		c-8.92-2.51-17.12-8.65-21.36-16.55c-2.94-5.47-7.03-13.04-14.61-12.88c-7.58,0.16-21.75,26.52-31.08,32.97
		C746.49,686.37,735.05,694.47,752.19,702.76z"/>
	<path class="st1" d="M783.11,676.38c6.24,3.02,48.18,40.83,49.92,19.03c0.78-9.79-2.52-16.88-10.16-19.03
		c-8.92-2.51-3.3-5.1-7.55-12.99c-2.94-5.47-20.85-16.59-28.43-16.43C779.31,647.11,765.97,668.09,783.11,676.38z"/>
	<path d="M799.72,727.06c-16.4,0-33.39-12.4-42.7-19.19c-2.5-1.83-4.48-3.27-5.49-3.76l0,0c-6.22-3.01-9.38-6.28-9.67-10
		c-0.47-6.05,7.05-11.25,13.1-15.43c3.87-2.67,8.85-9.26,13.67-15.63c7.1-9.39,13.23-17.49,18.23-17.6c0.07,0,0.13,0,0.2,0
		c8.27,0,23.9,10.34,28.35,14.77c7.61,7.57,8.15,9.42,8.7,14.11c0.07,0.55,0.14,1.16,0.23,1.83c0.43,3.02,1.49,6.15,2.61,9.47
		c3.9,11.55,8.31,24.64-12.51,37.38C809.76,725.89,804.77,727.06,799.72,727.06z M752.84,701.41c1.25,0.61,3.22,2.04,5.95,4.04
		c11.64,8.49,35.85,26.16,54.1,15c18.77-11.48,15.11-22.35,11.23-33.86c-1.16-3.45-2.26-6.71-2.74-10c-0.1-0.7-0.17-1.33-0.24-1.9
		c-0.45-3.85-0.61-5.14-7.84-12.34c-4.21-4.19-19.13-13.9-26.22-13.9c-0.05,0-0.1,0-0.16,0c-3.55,0.07-10.4,9.13-15.9,16.41
		c-4.96,6.56-10.09,13.34-14.35,16.29c-5.13,3.54-12.15,8.4-11.81,12.73C745.05,696.41,747.74,698.95,752.84,701.41L752.84,701.41z"
		/>
	<path d="M820.07,716.4c-2.77,0-7.4-0.56-11.45-3.7l1.84-2.37c5.07,3.94,11.51,2.96,11.58,2.95l0.49,2.96
		C822.42,716.25,821.49,716.4,820.07,716.4z"/>
	<path class="st8" d="M733.7,697.01c15.3,7.94,51.31-43.77,52.87-50.55c1.55-6.78-6.79-13.14-14.75-12.97s-24.64,30-34.44,37.26
		C727.59,678.01,715.72,687.68,733.7,697.01z"/>
	<path class="st1" d="M765.61,658.3c11.98,8.62,16.11-3.56,20.14-9.42c2.1-5.72-4.54-13.42-11.25-14.32
		c-4.46-0.59-16.79,9.53-13.94,19.15C761.16,655.74,763.15,656.53,765.61,658.3z"/>
	<path d="M737.29,699.28c-2.48,0-4.7-0.82-6.62-2.45c-5.54-4.71-8.02-8.69-7.81-12.55c0.29-5.27,5.64-8.9,11.31-12.75
		c0.99-0.67,2-1.36,3-2.06c4.29-3.03,9.77-10.42,15.06-17.58c7.75-10.47,14.44-19.52,19.9-19.63c5.98-0.12,12.65,3.52,15.27,8.31
		c1.46,2.68,1.43,5.39-0.09,7.65c-16.24,24.14-34.69,49.06-48.37,50.95C738.38,699.24,737.83,699.28,737.29,699.28z M732.61,694.54
		c1.68,1.43,3.62,1.97,5.92,1.65c14.2-1.96,36.69-35.38,46.29-49.65c0.89-1.32,0.87-2.84-0.06-4.53c-2.09-3.82-7.69-6.82-12.57-6.75
		c-3.98,0.08-11.19,9.83-17.55,18.42c-5.44,7.34-11.06,14.94-15.75,18.24c-1.02,0.72-2.04,1.41-3.05,2.1
		c-5.04,3.42-9.79,6.65-10,10.43C725.7,687.24,727.92,690.55,732.61,694.54z"/>
	<path class="st9" d="M722.21,532.99"/>
	<path class="st10" d="M703.45,820.15v24.47c0,0,4.6-1.01,5.25-1.25l190.84-69.34c3.19-1.16,5.31-4.19,5.31-7.58v-43.6
		c0-3.65-1.95-7.03-5.11-8.85l-33.2-19.18l-245.39,8.59L703.45,820.15z"/>
	<path class="st11" d="M582.51,745.35l115.92,96.24c2.23,1.74,4.7,2.6,4.7,2.6l0.31-24.04l-82.3-116.74l-32.62,5.45
		c-3.43,0.57-5.95,3.54-5.96,7.02L582.51,745.35z"/>
	<path d="M705.14,845.5c-2.76,0-5.49-0.95-7.66-2.76l-116.46-96.69l0.06-30.18c0.01-4.23,3.04-7.8,7.21-8.5l32.81-5.47l245.82-8.6
		l33.57,19.39c3.61,2.09,5.86,5.98,5.86,10.15v43.6c0,4.01-2.53,7.62-6.3,8.99l-190.84,69.34
		C707.89,845.26,706.51,845.5,705.14,845.5z M584.02,744.65l115.38,95.79c2.44,2.03,5.81,2.61,8.79,1.53l190.84-69.34
		c2.59-0.94,4.32-3.42,4.32-6.17v-43.6c0-3.11-1.67-6-4.36-7.55l-32.83-18.96L621.3,704.9l-32.52,5.43c-2.72,0.45-4.7,2.79-4.7,5.54
		L584.02,744.65z"/>
	<rect x="701.95" y="820.15" width="3" height="23.72"/>
	
		<linearGradient id="honey-fill_00000165955282840421150520000010764638226051981736_" gradientUnits="userSpaceOnUse" x1="800.5588" y1="875.0178" x2="694.8897" y2="576.7239">
		<stop  offset="0.1158" style="stop-color:#FCD32B"/>
		<stop  offset="1" style="stop-color:#FF7A0D"/>
	</linearGradient>
	<path id="honey-fill" style="fill:url(#honey-fill_00000165955282840421150520000010764638226051981736_);" d="M588.78,704.62
		c-4.99,1.64-4.84,5.39,0,8.37c0,0,8.26,4.95,9.58,9.25c1.32,4.29-0.49,8.92,3.72,16.18c4.21,7.27-3.88,17.37,2.53,27.52
		c7.53,11.92,2.91,27.28,5.97,34.24c3.63,8.26,12.22,10.24,16.51,2.64c3.35-5.93-1.32-15.52,0.66-21.8s7.93-6.61,8.26,1.32
		c0.33,7.93,9.51,30.79,2.01,54.16c-12.08,37.65,25.62,38.97,20.62,2.97c-2-14.4-6.55-28.07-0.22-27.41
		c6.33,0.66,15.34,7.09,12.79,20.48c-5.8,30.39,21.78,29.56,15.67,0.99c-3.62-16.91,19.44-14.2,24.25-11.56s14.61,11.8,11.09,29.39
		c-7.93,39.63,28.84,37.21,18.94-1.77c-4.15-16.33,2.46-33.9,16.4-33.9c7.6,0,8.92,14.53,16.62,11.23
		c4.07-1.75,10.18-19.45,14.93-22.79c12.16-8.56,13.03,28.73,9.12,52.29c-3.36,20.21,19.95,15.45,16.68-0.21
		c-1.54-7.35-2.86-16.07-3.19-32.59c-0.3-15.2,3.96-39.96,8.92-41.61c4.95-1.65,10.92,3,13.54,6.94c2.42,3.63,10.46,7.6,13.32-5.28
		c1.27-5.71,2.53-21.14,10.79-23.45c8.26-2.31,17.12,3.59,13.54,12.88c-10.46,27.19,21.36,28.18,13.1-0.99
		c-3.82-13.48,5.72-16.18,8.37-21.8c2.64-5.61,15.41-17.93,16.07-26.51c0.66-8.58-6.17-9.82-10.79-13.79
		c-3.79-3.24-64.79-34.67-86.79-45.97c-5.07-2.6-10.87-3.39-16.45-2.23L588.78,704.62z"/>
	<path id="dfdf" class="st13" d="M607.34,769.94c25.62-15.68,22.67-41.56,9.19-45.35c5.38,10.94,4.61,29.02-13.15,39.58
		C605.06,766.03,606.41,767.96,607.34,769.94z"/>
	<path class="st14" d="M619.41,720.16c0.61-2.55,2.59-4.45,5.16-4.96l140.43-33.09l0.92,3.89l-140.5,33.1
		c-1.1,0.22-1.87,0.95-2.11,1.98c-0.25,1.03,0.1,2.03,0.93,2.68C624.23,723.76,618.8,722.71,619.41,720.16z"/>
	<path class="st15" d="M675.7,758.44l-2.64-3l11.88-10.45c1.54-1.35,3.52-2.1,5.57-2.1h35.55v4h-35.55c-1.08,0-2.12,0.39-2.93,1.1
		L675.7,758.44z"/>
	<path class="st16" d="M728.71,745.18l-2.64-3l11.88-10.45c1.54-1.35,3.52-2.1,5.57-2.1l30.44-0.45l5.12,4.45h-35.55
		c-1.08,0-2.12,0.39-2.93,1.1L728.71,745.18z"/>
	<path class="st16" d="M775.6,732.68l-2.64-3l11.88-10.45c1.54-1.35,3.52-2.1,5.57-2.1l30.44-0.45l5.12,4.45h-35.55
		c-1.08,0-2.12,0.39-2.93,1.1L775.6,732.68z"/>
	<path class="st16" d="M824.7,720.07l-2.64-3l11.88-10.45c1.54-1.35,3.52-2.1,5.57-2.1l3.69-0.23v4.23h-3.69
		c-1.08,0-2.12,0.39-2.93,1.1L824.7,720.07z"/>
	<path class="st17" d="M675.7,733.93l-2.64-5.36l11.88-10.45c1.54-1.35,3.52-2.1,5.57-2.1h35.55l6.45,7.74l-40-1.39
		c-1.08,0-2.12,0.39-2.93,1.1L675.7,733.93z"/>
	<path class="st17" d="M730.61,721.59l-4.55-4.75l11.88-10.45c1.54-1.35,3.52-2.1,5.57-2.1h31.12l7.75,7.1l-37.82-0.5
		c-1.08,0-2.12,0.39-2.93,1.1L730.61,721.59z"/>
	<path class="st17" d="M776.6,707.67l-2.64-3l11.88-10.45c1.54-1.35,3.52-2.1,5.57-2.1l24.6,0.71l4.43,4l-29.03-0.71
		c-1.08,0-2.12,0.39-2.93,1.1L776.6,707.67z"/>
	<linearGradient id="SVGID_1_" gradientUnits="userSpaceOnUse" x1="804.4879" y1="772.4561" x2="714.4117" y2="655.2026">
		<stop  offset="8.552417e-03" style="stop-color:#FFE633"/>
		<stop  offset="0.8403" style="stop-color:#FFAF10;stop-opacity:0"/>
	</linearGradient>
	<path class="st18" d="M710.94,791.42c-4.26,0-8.49-1.4-11.91-4.08l-72.47-56.73c-3.16-2.47-4.54-6.43-3.61-10.33
		c0.92-3.86,3.89-6.75,7.77-7.55l131.92-31.08c4.33-1.02,8.46,2.28,8.43,6.73l0,0c-0.01,1.52-1.06,2.84-2.54,3.19l-133.75,31.51
		l73.46,57.5c0.73,0.57,1.7,0.73,2.58,0.41l3.1-1.12l156.48-54.16c2.71-0.94,5.68-7.63,3.19-9.03l-61.6-33.55
		c-1.55-0.85-2.5-2.49-2.45-4.26l0,0c0.06-2.33,12.69-9.1,14.74-7.99l68.6,37.2c3.9,2.16,15.86,6.33,15.86,10.79
		c0.98,2.42,1.03,4.91-0.34,7.89s-13.1,2.42-27.4,6.93l-163.41,56.56C715.42,791.03,713.17,791.42,710.94,791.42z"/>
	<path class="st15" d="M693.67,779.9l-41.73-32.81c8.79-3.2,25.7,6.43,42.88,16.49c6.15,2.37,12.74,3.4,19.32,3.02
		c13.01-3.6,26.35-6.02,41.43-2.35l-50.61,17.54C701.12,783.12,696.86,782.41,693.67,779.9z"/>
	
		<linearGradient id="SVGID_00000018957323055006988560000001650193282967809973_" gradientUnits="userSpaceOnUse" x1="624.2211" y1="809.1685" x2="624.2211" y2="771.2697">
		<stop  offset="0" style="stop-color:#FFDB2C"/>
		<stop  offset="1" style="stop-color:#FCC526"/>
	</linearGradient>
	<path style="fill:url(#SVGID_00000018957323055006988560000001650193282967809973_);" d="M631.3,775.99c0,0-3.88,1.88-4.21,6.18
		c-0.33,4.3,0.96,7.65,0.98,10.97c0.01,3.32,0.33,9.8-2.54,11.85c-2.87,2.04-4.24,3.13-6.46,2.53c-2.22-0.6-6.13-1.45-7.23-5.01
		c-1.09-3.56-2.69-3.41-2.22-8.03c0.47-4.62,2.78-5.77,3.11-4.7c0.33,1.07-0.41,3.8,1.57,8.26c1.98,4.46,7.93,3.96,7.93,0.25
		c0-2.33-2.64-15.61,2.64-22.95c8.68-12.07,17.34-0.83,12.8,11.72C635.84,783.85,631.97,775.55,631.3,775.99z"/>
	
		<linearGradient id="SVGID_00000061433911681385758590000016083915518731875744_" gradientUnits="userSpaceOnUse" x1="647.1245" y1="863.8479" x2="647.1245" y2="810.8214">
		<stop  offset="0" style="stop-color:#FFF42E"/>
		<stop  offset="1" style="stop-color:#FBDE2B"/>
	</linearGradient>
	<path style="fill:url(#SVGID_00000061433911681385758590000016083915518731875744_);" d="M656.05,832.01
		c1.79,8.49,2.45,15.57,2.47,18.89c0.01,3.32-2.38,9.85-5.25,11.89c-2.87,2.04-4.24,3.13-6.46,2.53s-6.8,0.02-7.9-3.55
		s-3.59-5.28-3.12-9.9c0.47-4.62,4.35-5.37,4.68-4.3c0.33,1.07-0.41,3.8,1.57,8.26c1.98,4.46,5.97,3.41,7.93,0.25
		c3.22-5.2,1.07-14.19,0.25-23.2c-0.33-3.63-2.31-15.52,5.78-22.22C653.51,818.34,654.87,826.42,656.05,832.01z"/>
	
		<linearGradient id="SVGID_00000177442944576752682400000014664509021282771075_" gradientUnits="userSpaceOnUse" x1="680.6946" y1="854.0688" x2="680.6946" y2="821.2529">
		<stop  offset="0" style="stop-color:#FFF42E"/>
		<stop  offset="1" style="stop-color:#FBDE2B"/>
	</linearGradient>
	<path style="fill:url(#SVGID_00000177442944576752682400000014664509021282771075_);" d="M687.76,841.91
		c-0.55,11.77-7.32,13.37-9.61,13.15c-8.94-0.88-7.46-18.14-7.13-17.06c0.33,1.07-0.41,3.8,1.57,8.26c1.98,4.46,5.97,3.41,7.93,0.25
		c3.22-5.2-4.54-24.26,10.16-25.35C683.07,826.93,687.91,838.59,687.76,841.91z"/>
	
		<linearGradient id="SVGID_00000093172045745443038980000002250426345635264387_" gradientUnits="userSpaceOnUse" x1="735.977" y1="878.079" x2="735.977" y2="816.5267">
		<stop  offset="0" style="stop-color:#FFF42E"/>
		<stop  offset="1" style="stop-color:#FBDE2B"/>
	</linearGradient>
	<path style="fill:url(#SVGID_00000093172045745443038980000002250426345635264387_);" d="M742.77,859.43
		c2.39,14.64-8.7,20.9-11,20.52c-8.94-1.47-10.98-18.17-10.65-16.38c0.33,1.79,0.01-4.45,1.99,2.99c1.98,7.44,9.07,4.39,11.02-0.88
		c3.22-8.68-6.24-50.56,16.72-49.32C743.27,826,737.22,825.49,742.77,859.43z"/>
	
		<linearGradient id="SVGID_00000065032223561397057780000006405902775309507227_" gradientUnits="userSpaceOnUse" x1="877.5148" y1="793.2851" x2="877.5148" y2="759.7416">
		<stop  offset="0" style="stop-color:#FFF42E"/>
		<stop  offset="1" style="stop-color:#FBDE2B"/>
	</linearGradient>
	<path style="fill:url(#SVGID_00000065032223561397057780000006405902775309507227_);" d="M886.02,777.19
		c2.39,14.64-5.51,17.12-7.84,17.13c-6.52,0.03-10.24-9.36-9.54-13.36c0.7-4,1.79,2.23,1.99,2.99c1.98,7.44,9.07,4.39,11.02-0.88
		c0.9-2.42,0.81-7.42,0.71-13.35c0.34-2.49,0.36-7.06,2.9-10.08C883.63,766.16,884.66,768.84,886.02,777.19z"/>
	
		<linearGradient id="SVGID_00000072992174246725398230000009130721092575250355_" gradientUnits="userSpaceOnUse" x1="808.725" y1="867.3792" x2="808.725" y2="782.6585">
		<stop  offset="0" style="stop-color:#FFF42E"/>
		<stop  offset="1" style="stop-color:#FBDE2B"/>
	</linearGradient>
	<path style="fill:url(#SVGID_00000072992174246725398230000009130721092575250355_);" d="M814.47,851.92
		c2.39,14.64-5.27,17.31-7.55,17.79c-10.18,2.14-9.6-9.01-9.27-7.22s0.25-2.1,0.57-4.58c1.98,7.44,9.3,6.77,10.51,1.28
		c1.23-5.61-8.9-69.91,11.22-76.79C812.34,792.03,808.92,817.97,814.47,851.92z"/>
	
		<linearGradient id="SVGID_00000146466273506318061370000004653859569208447126_" gradientUnits="userSpaceOnUse" x1="777.1603" y1="826.9471" x2="777.1603" y2="802.3721">
		<stop  offset="0" style="stop-color:#FFF42E"/>
		<stop  offset="1" style="stop-color:#FBDE2B"/>
	</linearGradient>
	<path style="fill:url(#SVGID_00000146466273506318061370000004653859569208447126_);" d="M774.11,826.94
		c-5.53,3.27-8.8-4.95-8.98-6.21c-0.18-1.25-1.72-1.26-2.13-4.4c6.63,7.73,9.95,4.82,12.91,0.08c3.04-4.88,9-16.95,15.41-13.51
		C784.47,806.45,778.72,824.21,774.11,826.94z"/>
	<path d="M731.87,881.49c-1.74,0-3.48-0.51-5.08-1.54c-2.46-1.58-10.15-8.34-6.05-28.87c3.87-19.37-8.87-26.98-10.34-27.79
		c-3.08-1.69-14.21-3.26-19.51,0.69c-2.63,1.96-3.46,4.98-2.55,9.24c1.69,7.92,1.35,17.85-4.68,21.99
		c-2.74,1.88-6.04,1.92-8.81,0.11c-1.99-1.3-8.23-6.8-5.13-23.05c1-5.26,0.17-9.87-2.41-13.34c-2.63-3.53-6.4-5.09-9.06-5.36
		c-0.74-0.08-1.06,0.16-1.28,0.41c-2.82,3.17,0.77,19.16,2.12,25.18c2.05,9.12,1.45,20.64-6.38,25.63
		c-4.07,2.59-8.92,2.41-12.66-0.47c-6.29-4.85-7.59-15.42-3.47-28.26c5.5-17.15,1.87-33.84-0.54-44.87
		c-0.81-3.72-1.45-6.66-1.54-8.77c-0.12-2.97-1.12-4.42-2.04-4.54c-1-0.13-2.49,1.09-3.28,3.61c-0.79,2.52-0.36,5.79,0.09,9.25
		c0.59,4.5,1.21,9.15-0.88,12.83c-2.08,3.67-5.31,5.69-8.9,5.5c-4.2-0.21-8.14-3.38-10.3-8.28c-1.37-3.12-1.04-6.85-0.68-10.8
		c0.52-5.74,1.11-12.24-3.06-19.04c-3.68-6-3.47-13.17-3.28-19.5c0.14-4.82,0.28-9.37-1.41-12.27c-2.92-5.04-3.13-8.98-3.29-12.15
		c-0.08-1.62-0.16-3.03-0.56-4.35c-0.84-2.73-5.91-6.6-8.92-8.4c-3.1-1.9-4.65-4.21-4.39-6.5c0.14-1.18,0.93-3.35,4.69-4.58
		l0.16-0.04l206.72-42.9l0.3,1.47l-0.3-1.47c5.63-1.17,11.55-0.37,16.67,2.25c25.08,12.84,83.82,43.07,87.69,46.38
		c1.09,0.94,2.38,1.75,3.62,2.53c3.87,2.44,8.25,5.21,7.69,12.51c-0.46,6.04-6.24,13.47-10.87,19.44c-2.31,2.97-4.49,5.78-5.34,7.59
		c-0.87,1.86-2.31,3.33-3.83,4.89c-3.41,3.5-6.93,7.12-4.46,15.86c4.29,15.15-2.01,20.72-4.04,22.06c-3.17,2.1-7.1,1.95-10.02-0.4
		c-1.77-1.42-7.15-7.13-1.89-20.81c1.24-3.23,0.84-6.2-1.13-8.37c-2.38-2.62-6.65-3.64-10.61-2.53c-6.06,1.7-7.96,12.52-9.1,18.98
		c-0.23,1.3-0.43,2.43-0.63,3.35c-1.63,7.35-4.92,9.45-7.39,9.91c-3.44,0.63-6.95-1.58-8.64-4.12c-2.35-3.53-7.77-7.7-11.82-6.34
		c-3.33,1.11-8.23,23.24-7.89,40.16c0.33,16.69,1.72,25.39,3.16,32.31c1.16,5.55-0.63,10.58-4.79,13.47
		c-3.41,2.36-7.62,2.62-10.73,0.65c-2.17-1.37-5.58-5-4.11-13.84c3.37-20.28,2.71-47.75-3.17-51.44c-0.62-0.39-1.66-0.74-3.61,0.63
		c-2.05,1.44-4.76,6.66-7.15,11.27c-3.42,6.58-5.67,10.65-8.05,11.67c-5.25,2.25-8.23-2.08-10.64-5.57
		c-1.97-2.85-3.82-5.54-6.58-5.54c-4.37,0-8.19,1.95-11.06,5.62c-4.85,6.24-6.38,16.6-3.89,26.4c4.23,16.64,0.14,26.59-5.1,30.36
		C735.75,880.85,733.81,881.49,731.87,881.49z M700.63,818.53c4.72,0,9.2,1.03,11.21,2.13c1.34,0.74,5.97,3.61,9.27,9.69
		c3.31,6.11,4.18,13.29,2.57,21.31c-2.97,14.83,0.5,23.03,4.73,25.76c2.33,1.5,5.01,1.41,7.34-0.27c4.23-3.04,7.8-11.99,3.94-27.19
		c-2.71-10.67-0.97-22.04,4.43-28.98c3.45-4.44,8.09-6.78,13.42-6.78c4.33,0,6.83,3.63,9.05,6.84c2.78,4.03,4.28,5.67,6.99,4.51
		c1.57-0.67,4.34-6.01,6.57-10.3c2.8-5.39,5.44-10.48,8.09-12.34c3.15-2.21,5.51-1.61,6.93-0.72c8.69,5.46,7.24,38.18,4.53,54.48
		c-0.88,5.29,0.1,9.13,2.76,10.82c2.09,1.32,5,1.09,7.42-0.58c3.14-2.17,4.47-6.06,3.56-10.39c-1.47-7.06-2.89-15.93-3.22-32.86
		c-0.27-13.56,3.39-40.88,9.94-43.07c5.78-1.93,12.41,3.24,15.26,7.53c0.95,1.43,3.32,3.25,5.59,2.83c2.27-0.42,4-3.05,5.01-7.61
		c0.19-0.86,0.38-1.95,0.6-3.22c1.26-7.16,3.36-19.14,11.24-21.35c5.11-1.43,10.46-0.09,13.63,3.4c2.73,3.01,3.36,7.18,1.71,11.47
		c-3.6,9.36-1.86,15.12,0.97,17.39c1.91,1.53,4.39,1.62,6.48,0.23c3.3-2.19,5.78-8.26,2.81-18.75c-2.95-10.41,1.57-15.04,5.19-18.77
		c1.34-1.38,2.6-2.67,3.26-4.07c0.99-2.11,3.17-4.91,5.68-8.15c4.39-5.66,9.85-12.69,10.25-17.83c0.42-5.5-2.55-7.37-6.3-9.74
		c-1.33-0.84-2.71-1.71-3.97-2.79c-2.47-2.12-35.85-19.74-87.1-45.98c-4.51-2.31-9.73-3.02-14.69-1.98l-206.64,42.89
		c-1.54,0.52-2.48,1.27-2.57,2.05c-0.09,0.8,0.64,2.16,2.96,3.58c0.88,0.53,8.78,5.38,10.23,10.08c0.52,1.68,0.6,3.33,0.69,5.08
		c0.15,2.99,0.33,6.38,2.89,10.8c2.11,3.64,1.97,8.61,1.81,13.87c-0.18,6.2-0.37,12.61,2.84,17.85c4.69,7.65,4.02,14.99,3.49,20.88
		c-0.34,3.7-0.62,6.9,0.44,9.32c1.69,3.85,4.64,6.33,7.7,6.49c2.45,0.13,4.62-1.29,6.13-3.98c1.59-2.81,1.04-6.96,0.51-10.97
		c-0.48-3.63-0.97-7.39,0.02-10.54c1.19-3.76,3.81-6.03,6.54-5.68c1.02,0.14,4.38,1.07,4.65,7.39c0.08,1.85,0.69,4.68,1.47,8.26
		c2.32,10.66,6.21,28.51,0.46,46.43c-5.51,17.17,0.48,23.45,2.44,24.97c2.71,2.09,6.24,2.21,9.21,0.32
		c4.28-2.72,7.85-10.05,5.07-22.44c-3.17-14.11-4.63-24.25-1.44-27.83c0.96-1.08,2.28-1.56,3.84-1.4c3.29,0.34,7.95,2.25,11.16,6.56
		c2.16,2.9,4.42,7.98,2.95,15.69c-2.19,11.46,0.54,17.84,3.82,19.98c1.75,1.14,3.74,1.12,5.47-0.07c3.15-2.16,5.71-8.26,3.44-18.88
		c-1.45-6.79,1.21-10.42,3.69-12.27C692.12,819.33,696.47,818.53,700.63,818.53z"/>
	
		<linearGradient id="SVGID_00000060753460981675105610000004868712199816945085_" gradientUnits="userSpaceOnUse" x1="732.3466" y1="918.426" x2="731.6614" y2="963.2953">
		<stop  offset="0" style="stop-color:#FEF22F"/>
		<stop  offset="1" style="stop-color:#FDBB22"/>
	</linearGradient>
	<path style="fill:url(#SVGID_00000060753460981675105610000004868712199816945085_);" d="M742.36,949.54
		c0,5.79-4.69,10.49-10.49,10.49s-10.49-4.69-10.49-10.49s4.69-28.65,10.49-28.65S742.36,943.75,742.36,949.54z"/>
	
		<linearGradient id="SVGID_00000100376984790736123050000003460224865667082165_" gradientUnits="userSpaceOnUse" x1="677.6722" y1="895.702" x2="677.6722" y2="911.0598">
		<stop  offset="0" style="stop-color:#FEF22F"/>
		<stop  offset="1" style="stop-color:#FFAE0B"/>
	</linearGradient>
	<path style="fill:url(#SVGID_00000100376984790736123050000003460224865667082165_);" d="M685.35,904.12
		c0,5.37-3.44,9.72-7.68,9.72c-4.24,0-7.68-4.35-7.68-9.72s3.44-26.55,7.68-26.55C681.91,877.57,685.35,898.75,685.35,904.12z"/>
	
		<linearGradient id="SVGID_00000060019108877162983870000005624962670766290874_" gradientUnits="userSpaceOnUse" x1="772.956" y1="853.8901" x2="772.956" y2="867.7066">
		<stop  offset="0" style="stop-color:#FEF22F"/>
		<stop  offset="1" style="stop-color:#FFAE0B"/>
	</linearGradient>
	<path style="fill:url(#SVGID_00000060019108877162983870000005624962670766290874_);" d="M779.86,858.57
		c0,3.82-3.09,6.91-6.91,6.91c-3.82,0-6.91-3.09-6.91-6.91s3.09-16.27,6.91-16.27C776.77,842.3,779.86,854.75,779.86,858.57z"/>
	
		<linearGradient id="SVGID_00000152229021882988215530000000398246241513401745_" gradientUnits="userSpaceOnUse" x1="845.6935" y1="822.2635" x2="845.6935" y2="836.08">
		<stop  offset="0" style="stop-color:#FEF22F"/>
		<stop  offset="1" style="stop-color:#FFAE0B"/>
	</linearGradient>
	<path style="fill:url(#SVGID_00000152229021882988215530000000398246241513401745_);" d="M852.6,826.92c0,3.82-3.09,6.91-6.91,6.91
		s-6.91-3.09-6.91-6.91s3.09-16.27,6.91-16.27S852.6,823.11,852.6,826.92z"/>
	
		<linearGradient id="SVGID_00000086667215980909554940000009946044572314216832_" gradientUnits="userSpaceOnUse" x1="733.3585" y1="959.6432" x2="733.3585" y2="924.7131">
		<stop  offset="0" style="stop-color:#FFF42E"/>
		<stop  offset="1" style="stop-color:#FBDE2B"/>
	</linearGradient>
	<path style="fill:url(#SVGID_00000086667215980909554940000009946044572314216832_);" d="M742.56,945.62
		c2.39,14.64-8.81,15.4-11.11,15.03c-2.13-0.35-3.85-1.26-5.23-2.41c-4.42-3.7-1.63-2.28-0.52-1.65c2.91,1.65,7.02-1,8.43-4.82
		c1.55-4.18,2.85-11.31,0.87-27.17C738.37,929.07,740.45,933.79,742.56,945.62z"/>
	
		<linearGradient id="SVGID_00000162349536692707165080000010055875454476109756_" gradientUnits="userSpaceOnUse" x1="677.7933" y1="912.6848" x2="677.7933" y2="877.7548">
		<stop  offset="0" style="stop-color:#FFF42E"/>
		<stop  offset="1" style="stop-color:#FBDE2B"/>
	</linearGradient>
	<path style="fill:url(#SVGID_00000162349536692707165080000010055875454476109756_);" d="M685.16,898.66
		c1.92,14.64-7.06,15.4-8.89,15.03c-1.7-0.35-3.08-1.26-4.19-2.41c-3.54-3.7-1.3-2.28-0.42-1.65c2.33,1.65,5.62-1,6.75-4.82
		c1.24-4.18,2.28-11.31,0.7-27.17C681.81,882.12,683.47,886.83,685.16,898.66z"/>
	<path d="M731.87,961.53c-6.61,0-11.99-5.38-11.99-11.99c0-4.73,4.32-30.15,11.99-30.15s11.99,25.42,11.99,30.15
		C743.86,956.15,738.48,961.53,731.87,961.53z M731.87,922.39c-3.79,0-8.99,20.07-8.99,27.15c0,4.96,4.03,8.99,8.99,8.99
		c4.95,0,8.99-4.03,8.99-8.99C740.86,942.47,735.66,922.39,731.87,922.39z"/>
	<path d="M677.67,915.33c-5.06,0-9.18-5.03-9.18-11.22c0-1.92,2.56-28.05,9.18-28.05c6.62,0,9.18,26.13,9.18,28.05
		C686.85,910.3,682.73,915.33,677.67,915.33z M677.63,879.07c-1.76,0.59-6.13,15.63-6.13,25.05c0,4.53,2.77,8.22,6.18,8.22
		c3.41,0,6.18-3.69,6.18-8.22C683.85,894.7,679.48,879.66,677.63,879.07z"/>
	<path d="M772.96,866.98c-4.64,0-8.41-3.77-8.41-8.41c0-2.29,0.91-6.61,2.11-10.06c1.78-5.12,3.9-7.71,6.3-7.71s4.52,2.59,6.3,7.71
		c1.2,3.45,2.11,7.77,2.11,10.06C781.36,863.21,777.59,866.98,772.96,866.98z M772.96,843.8c-1.72,0-5.41,9.27-5.41,14.77
		c0,2.98,2.43,5.41,5.41,5.41s5.41-2.43,5.41-5.41C778.36,853.07,774.68,843.8,772.96,843.8z"/>
	<path d="M845.69,835.33c-4.64,0-8.41-3.77-8.41-8.41c0-2.29,0.91-6.61,2.11-10.06c1.78-5.12,3.9-7.71,6.3-7.71s4.52,2.59,6.3,7.71
		c1.2,3.45,2.11,7.77,2.11,10.06C854.1,831.56,850.33,835.33,845.69,835.33z M845.69,812.16c-1.72,0-5.41,9.27-5.41,14.77
		c0,2.98,2.43,5.41,5.41,5.41s5.41-2.43,5.41-5.41C851.1,821.43,847.42,812.16,845.69,812.16z"/>
	<path d="M718.35,676.29c-0.02-0.59-1.46-60.61,11.89-156.77l2.97,0.41c-13.31,95.92-11.88,155.69-11.86,156.28L718.35,676.29z"/>
	<path class="st32" d="M701.54,783.66c-3.37,0-6.73-1.11-9.44-3.24l-72.47-56.73c-1.91-1.49-2.74-3.89-2.18-6.25
		c0.56-2.36,2.39-4.11,4.77-4.58l140.44-33.09l0.69,2.92l-140.5,33.1c-1.29,0.25-2.19,1.13-2.49,2.35
		c-0.29,1.22,0.12,2.41,1.11,3.19l72.47,56.74c3.33,2.61,7.87,3.31,11.84,1.83l163.5-56.59c1.59-0.55,2.63-1.88,2.77-3.56
		c0.15-1.68-0.65-3.17-2.12-3.98l-47.14-26.14l1.46-2.62l47.14,26.14c2.5,1.39,3.9,4.02,3.65,6.87s-2.08,5.2-4.78,6.13L706.8,782.72
		C705.11,783.35,703.32,783.66,701.54,783.66z"/>
	<path class="st32" d="M673.5,755.89l-1.98-2.25l11.88-10.45c1.45-1.27,3.31-1.98,5.24-1.98h35.55v3h-35.55
		c-1.2,0-2.36,0.44-3.26,1.23L673.5,755.89z"/>
	<path class="st32" d="M686.23,744.02l-15.1-12.9c-1.17-0.92-2.69-1.44-4.24-1.44H635.9v-3h30.99c2.22,0,4.4,0.75,6.14,2.12
		l15.15,12.94L686.23,744.02z"/>
	<path class="st32" d="M671.92,729.38l-1.8-2.4c0.44-0.33,16.38-11.71,18.19-13.01l0.41-0.29l35.39,1.1l15.52-12.88l0.56,0.02
		l33.18,0.86l11.66-10.88l-6.58-6.94l2.18-2.06l8.66,9.13l-14.77,13.78l-33.85-0.88l-15.53,12.88l-35.51-1.1
		C683.45,721.13,672.31,729.08,671.92,729.38z"/>
	<path class="st32" d="M719.93,778l-2.17-2.07l17.4-18.29l-13.08-15.08l15.45-13.38c1.12-0.97,2.56-1.51,4.04-1.51h29.66
		c0.76,0,1.49-0.27,2.07-0.77l12.35-10.62c1.12-0.96,2.55-1.49,4.02-1.49h29.61c0.79,0,1.54-0.29,2.12-0.82l10.66-9.6
		c1.13-1.02,2.6-1.59,4.13-1.59h7.01v3h-7.01c-0.79,0-1.54,0.29-2.12,0.81l-10.66,9.6c-1.13,1.02-2.6,1.59-4.13,1.59h-29.61
		c-0.76,0-1.49,0.27-2.07,0.77l-12.35,10.62c-1.12,0.96-2.55,1.49-4.02,1.49h-29.66c-0.76,0-1.5,0.28-2.08,0.77l-13.18,11.42
		l12.9,14.87L719.93,778z"/>
	
		<rect x="754.07" y="739.71" transform="matrix(0.0225 -0.9997 0.9997 0.0225 -19.3677 1496.3846)" class="st32" width="3" height="36.78"/>
	
		<rect x="731.01" y="712.92" transform="matrix(0.6972 -0.7168 0.7168 0.6972 -296.3288 743.9021)" class="st32" width="3" height="19.68"/>
	
		<rect x="779.39" y="701.19" transform="matrix(0.6662 -0.7457 0.7457 0.6662 -269.2038 819.4712)" class="st32" width="3" height="18.59"/>
	<path class="st32" d="M785.58,754.96l-2.74-1.21c0.24-0.6,2.26-7.25,3.67-11.91l-14.69-11.49l1.85-2.36l16.3,12.75l-0.3,0.98
		C788.26,746.41,785.85,754.37,785.58,754.96z"/>
	
		<rect x="788.24" y="739.64" transform="matrix(1 -9.114205e-03 9.114205e-03 1 -6.7214 7.3691)" class="st32" width="33.82" height="3"/>
	
		<rect x="682.56" y="702.63" transform="matrix(0.7575 -0.6528 0.6528 0.7575 -297.2706 618.557)" class="st32" width="3" height="13.66"/>
	
		<rect x="732.83" y="691.25" transform="matrix(0.6873 -0.7263 0.7263 0.6873 -277.7164 751.7643)" class="st32" width="3" height="14.42"/>
	
		<rect x="787.16" y="690.4" transform="matrix(1 -3.580706e-03 3.580706e-03 1 -2.4724 2.8769)" class="st32" width="30.08" height="3"/>
	<path class="st32" d="M828.67,740.25l-2.43-1.76l7.59-10.52c0.31-0.43,0.24-1.02-0.16-1.37l-15.16-9.03l1.54-2.58l15.39,9.18
		c1.75,1.33,2.12,3.77,0.83,5.55L828.67,740.25z"/>
	<g>
		<path class="st5" d="M508.55,709.58c29.21,29.8,48.85,38.96,71.18,42.63c24.82,4.08,32.87-22.88,15.86-33.33
			c-24.38-14.99-32.09-17.09-51.17-36.86C534.1,692.57,522.07,705.99,508.55,709.58z"/>
		<path d="M584.67,754.13c-1.63,0-3.36-0.14-5.18-0.44c-18.45-3.03-40.09-10.48-73.12-44.18l2.14-2.1
			c32.43,33.09,53.51,40.38,71.46,43.32c7.94,1.31,18.52-0.75,22.2-10.82c2.29-6.28,0.91-14.82-7.35-19.74
			c-3.99-2.38-7.64-4.51-11.02-6.49c-18.74-10.97-29.07-17.01-40.53-30.69l2.3-1.93c11.13,13.28,21.29,19.23,39.75,30.03
			c3.39,1.98,7.05,4.12,11.04,6.5c9.73,5.8,11.35,15.9,8.63,23.35C602.64,747.39,596,754.13,584.67,754.13z"/>
		<path d="M601.34,744.33c-0.24-0.11-6.03-2.71-11.79-7.18l1.84-2.37c5.46,4.24,11.12,6.79,11.17,6.81L601.34,744.33z"/>
	</g>
	<g class="st33">
		
			<ellipse transform="matrix(0.6351 -0.7724 0.7724 0.6351 -375.7932 334.6578)" class="st34" cx="166.31" cy="565.08" rx="27.02" ry="24.76"/>
		<path d="M164.06,592.72c-5.87,0-11.39-1.93-15.86-5.61c-11.19-9.2-12.16-26.56-2.17-38.71c4.82-5.87,11.46-9.66,18.69-10.69
			c7.28-1.03,14.28,0.86,19.72,5.33c5.44,4.47,8.65,10.97,9.04,18.31c0.39,7.29-2.05,14.53-6.87,20.4
			c-4.82,5.87-11.46,9.66-18.69,10.69C166.62,592.63,165.33,592.72,164.06,592.72z M168.56,540.44c-1.13,0-2.27,0.08-3.42,0.24
			c-6.48,0.92-12.44,4.34-16.79,9.62c-8.94,10.87-8.15,26.34,1.76,34.49c4.78,3.93,10.96,5.59,17.39,4.68
			c6.48-0.92,12.44-4.34,16.79-9.62s6.54-11.79,6.19-18.33c-0.35-6.49-3.17-12.23-7.95-16.16l0,0
			C178.6,542.14,173.73,540.44,168.56,540.44z"/>
	</g>
	<path class="st33" d="M170.94,584.27c-5.86,0-11.48-1.73-15.89-5.36c-5.6-4.6-8.63-11.69-8.52-19.95
		c0.1-7.71,3.01-15.61,7.99-21.67l3.86,3.18c-4.27,5.19-6.77,11.96-6.85,18.56c-0.08,6.71,2.29,12.4,6.7,16.02
		c9.17,7.54,25.64,4.54,34.55-6.3l3.86,3.18C190.04,579.94,180.19,584.27,170.94,584.27z"/>
	<path class="st33" d="M176.98,572.37c-4.41,0-8.82-0.76-12.26-3.59c-8.07-6.64-8.02-20.03-7.62-25.48l4.99,0.37
		c-0.27,3.65-0.64,15.95,5.81,21.25c3.99,3.28,10.99,2.52,16.63,1.91l0.93-0.1l0.53,4.97l-0.92,0.1
		C182.53,572.07,179.76,572.37,176.98,572.37z"/>
	<g>
		<path id="f_00000176745247734830876930000002640356809594671255_" class="st35" d="M191.33,548.97c5.01,2.01,16,19.34,15.38,35.47
			c-0.82,21.1-28.4,7.94-30.46-12.32C174.94,559.22,182.69,545.5,191.33,548.97z"/>
		<path class="st36" d="M196.1,593.93l-2.95-0.55c0.03-0.15,2.56-14.84-7.29-37.56l2.75-1.19
			C198.86,578.27,196.22,593.3,196.1,593.93z"/>
		<path class="st36" d="M181.86,581.97c-1.87,0-3.19-0.44-3.28-0.48l0.98-2.84c0.03,0.01,2.96,0.96,5.92-0.52
			c2.4-1.2,4.24-3.66,5.45-7.32l2.85,0.95c-1.48,4.47-3.85,7.53-7.02,9.09C185,581.72,183.27,581.97,181.86,581.97z"/>
		<path class="st36" d="M204.19,585.06c-5.02,0-9.91-2.53-11.46-6.33l2.78-1.13c1.34,3.28,6.9,5.28,11.46,4.12l0.74,2.91
			C206.56,584.92,205.37,585.06,204.19,585.06z"/>
		<path class="st33" d="M197.89,596.67c-9.45,0-21.74-10.71-23.13-24.4c-0.94-9.25,2.47-19.04,8.11-23.28
			c2.85-2.15,5.98-2.63,9.02-1.41l0,0c5.91,2.37,16.95,20.56,16.32,36.92c-0.42,10.72-7.09,12.08-9.93,12.17
			C198.14,596.67,198.01,596.67,197.89,596.67z M188.6,549.92c-1.32,0-2.64,0.49-3.93,1.46c-4.78,3.59-7.76,12.44-6.93,20.58
			c1.29,12.76,12.83,21.7,20.16,21.7c0.09,0,0.18,0,0.27,0c5.52-0.17,6.87-5.15,7.03-9.29c0.6-15.46-10.06-32.26-14.44-34.02l0,0
			C190.04,550.07,189.32,549.92,188.6,549.92z"/>
	</g>
	<g>
		<path id="f_00000183968425046843086280000012978783434913824955_" class="st35" d="M173.67,535.82
			c-3.41-4.18-23.22-9.54-38.43-4.16c-19.91,7.04,0.85,29.48,20.8,25.43C168.74,554.51,179.54,543.03,173.67,535.82z"/>
		<path class="st36" d="M130.71,547.26l-1.4-2.65c0.57-0.3,14.14-7.28,39.75-4.51l-0.32,2.98
			C144.13,540.41,130.84,547.19,130.71,547.26z"/>
		<path class="st36" d="M146.38,557.64c-0.1-0.14-2.53-3.48-1.81-8.01c0.55-3.49,2.77-6.65,6.6-9.4l1.75,2.44
			c-3.15,2.26-4.96,4.76-5.38,7.43c-0.51,3.24,1.25,5.73,1.26,5.76L146.38,557.64z"/>
		<path class="st36" d="M144.82,543.31c-5.05-0.43-9.75-6.3-10.07-12.55l3-0.15c0.24,4.69,3.8,9.41,7.33,9.72L144.82,543.31z"/>
		<path class="st33" d="M151.12,559.08c-11.85,0-22.85-7.74-25.06-15.74c-0.76-2.75-1.44-9.52,8.67-13.1
			c15.44-5.46,36.08-0.31,40.1,4.63l0,0c2.08,2.55,2.54,5.67,1.33,9.04c-2.38,6.64-10.72,12.81-19.83,14.65
			C154.59,558.91,152.84,559.08,151.12,559.08z M149.6,530.9c-4.66,0-9.48,0.61-13.87,2.17c-3.91,1.38-8.26,4.15-6.78,9.47
			c1.95,7.06,14.06,15.66,26.79,13.08c8.02-1.63,15.59-7.1,17.6-12.73c0.84-2.35,0.56-4.42-0.83-6.13
			C170.42,534.21,160.42,530.9,149.6,530.9z"/>
	</g>
	<g class="st33">
		<ellipse transform="matrix(0.6351 -0.7724 0.7724 0.6351 -348.4794 340.0879)" cx="185.72" cy="538.88" rx="14.61" ry="19.2"/>
		<path d="M190.29,556.98c-4.89,0-10.24-1.89-14.81-5.65c-8.82-7.25-11.4-18.73-5.76-25.59c2.78-3.39,7.09-5.15,12.12-4.96
			c4.88,0.18,9.89,2.19,14.1,5.66s7.15,7.99,8.27,12.74c1.16,4.9,0.26,9.46-2.52,12.85l0,0
			C198.98,555.34,194.84,556.98,190.29,556.98z M181.12,523.77c-3.81,0-7.01,1.36-9.08,3.87c-4.59,5.58-2.19,15.17,5.34,21.37
			c7.54,6.2,17.41,6.7,22,1.11c2.17-2.64,2.85-6.29,1.92-10.25c-0.97-4.12-3.55-8.06-7.26-11.11c-3.71-3.05-8.08-4.82-12.31-4.98
			C181.53,523.77,181.33,523.77,181.12,523.77z"/>
	</g>
	<path d="M199.73,534.13c-0.77,0-1.42-0.58-1.49-1.36c-0.08-0.83,0.53-1.55,1.36-1.63c7.36-0.67,14.01-4.16,17.77-9.33
		c0.49-0.67,1.43-0.82,2.1-0.33c0.67,0.49,0.82,1.43,0.33,2.1c-4.26,5.85-11.71,9.8-19.92,10.55
		C199.82,534.13,199.78,534.13,199.73,534.13z"/>
	<path d="M187.96,525.43c-0.69,0-1.31-0.47-1.46-1.17c-1.8-8.05-0.33-16.35,3.94-22.2c0.49-0.67,1.43-0.82,2.1-0.33
		c0.67,0.49,0.82,1.43,0.33,2.1c-3.77,5.16-5.05,12.56-3.44,19.77c0.18,0.81-0.33,1.61-1.14,1.79
		C188.18,525.42,188.07,525.43,187.96,525.43z"/>
	<polygon points="143.81,581.73 141.02,595.17 154.64,590.45 	"/>
	<g class="st33">
		
			<ellipse transform="matrix(0.5501 -0.8351 0.8351 0.5501 -489.1145 755.9786)" class="st34" cx="457.1" cy="831.96" rx="24.76" ry="27.02"/>
		<path d="M459.17,858.91c-5.59,0-11.37-1.63-16.52-5.03c-6.34-4.18-10.81-10.38-12.6-17.46c-1.79-7.13-0.65-14.29,3.23-20.17
			s10-9.76,17.26-10.92c7.21-1.16,14.67,0.51,21.01,4.68c6.34,4.18,10.81,10.38,12.6,17.46c1.79,7.13,0.65,14.29-3.23,20.17
			C476.07,855,467.83,858.91,459.17,858.91z M455.04,807.98c-1.35,0-2.69,0.11-4.03,0.32c-6.42,1.03-11.82,4.45-15.23,9.61
			s-4.41,11.48-2.82,17.79c1.6,6.35,5.62,11.92,11.34,15.68c11.75,7.74,27.05,5.33,34.11-5.39c3.4-5.17,4.41-11.48,2.82-17.79
			c-1.6-6.35-5.62-11.92-11.34-15.68C465.36,809.54,460.21,807.98,455.04,807.98z"/>
	</g>
	<path class="st33" d="M450,852.5c-6.47,0-13.27-1.91-19.29-5.88l2.75-4.18c11.92,7.86,28,6.22,34.4-3.49
		c3.13-4.75,3.81-11.2,1.88-17.69c-1.94-6.51-6.24-12.35-11.78-16l2.75-4.18c6.51,4.29,11.55,11.12,13.82,18.75
		c2.36,7.91,1.45,15.89-2.49,21.87C467.38,848.78,459.02,852.5,450,852.5z"/>
	<path class="st33" d="M436.41,843.41l-0.16-5c3.65-0.12,15.93-1.05,20.52-8.01c2.84-4.31,1.34-11.19,0.15-16.73l-0.2-0.92
		l4.89-1.05l0.2,0.91c1.4,6.45,3.14,14.48-0.86,20.54C455.2,841.87,441.87,843.23,436.41,843.41z"/>
	<g>
		<path id="f_00000053504804854759553610000004726152846540498829_" class="st35" d="M438.44,808.78
			c1.47-5.19,17.55-17.95,33.65-19.03c21.07-1.41,10.89,27.41-9.04,31.59C450.36,824,435.9,817.73,438.44,808.78z"/>
		<path class="st36" d="M445.83,813.49l-1.48-2.61c22.43-12.68,37.66-11.63,38.29-11.59l-0.24,2.99
			C482.27,802.27,467.39,801.3,445.83,813.49z"/>
		<path class="st36" d="M472.13,818.02l-2.92-0.67c0.01-0.03,0.65-3.04-1.14-5.83c-1.45-2.26-4.09-3.83-7.86-4.65l0.64-2.93
			c4.6,1.01,7.89,3.03,9.78,6.02C473.07,813.83,472.17,817.86,472.13,818.02z"/>
		<path class="st36" d="M467.89,804.24l-1.42-2.64c3.12-1.67,4.53-7.42,2.89-11.83l2.81-1.04
			C474.36,794.6,472.36,801.85,467.89,804.24z"/>
		<path class="st33" d="M456.92,823.46c-7.07,0-13.88-2.31-17.57-6.27c-2.44-2.61-3.25-5.66-2.35-8.82
			c1.74-6.12,18.66-19.02,34.99-20.12c10.7-0.7,12.76,5.77,13.15,8.6c1.3,9.42-8.13,23.09-21.78,25.96
			C461.24,823.25,459.06,823.46,456.92,823.46z M473.55,791.2c-0.46,0-0.92,0.02-1.36,0.05c-15.44,1.03-31.02,13.41-32.31,17.94l0,0
			c-0.6,2.13-0.04,4.13,1.66,5.96c4.08,4.37,13.19,6.4,21.2,4.72c12.71-2.67,20.42-15.36,19.42-22.61
			C481.49,792.38,477.37,791.2,473.55,791.2z"/>
	</g>
	<g>
		<path id="f_00000132799418454493164390000016870766709629303439_" class="st35" d="M427.23,827.73c-3.8,3.83-7.04,24.1-0.09,38.66
			c9.1,19.05,29.23-3.95,23.1-23.37C446.34,830.65,433.78,821.13,427.23,827.73z"/>
		<path class="st36" d="M440.64,870.91c-0.36-0.53-8.73-13.29-8.68-39.06l3,0.01c-0.05,24.76,8.09,37.25,8.17,37.38L440.64,870.91z"
			/>
		<path class="st36" d="M444.58,855.22c-0.18,0-0.36,0-0.54-0.01c-3.53-0.18-6.91-2.05-10.04-5.57l2.24-2
			c2.58,2.9,5.25,4.43,7.95,4.57c3.26,0.17,5.57-1.84,5.59-1.86l2.03,2.21C451.68,852.67,448.85,855.22,444.58,855.22z"/>
		<path class="st36" d="M426.29,866.96l-0.47-2.96c4.64-0.73,8.96-4.77,8.89-8.32l3-0.06C437.82,860.69,432.48,865.99,426.29,866.96
			z"/>
		<path class="st33" d="M435.95,875.01c-3.1,0-7.08-1.54-10.16-7.98c-7.06-14.77-4.11-35.84,0.37-40.36l0,0
			c2.32-2.33,5.38-3.12,8.84-2.28c6.86,1.67,13.86,9.31,16.66,18.17c4.2,13.3-3.1,28.22-11.94,31.71
			C438.84,874.63,437.51,875.01,435.95,875.01z M432.41,827.07c-1.6,0-2.98,0.57-4.12,1.72l0,0c-3.32,3.34-6.47,22.99,0.2,36.96
			c1.79,3.74,5,7.77,10.13,5.75c6.81-2.69,14.09-15.64,10.18-28.02c-2.46-7.8-8.7-14.75-14.51-16.16
			C433.64,827.15,433.01,827.07,432.41,827.07z"/>
	</g>
	<g class="st33">
		<ellipse transform="matrix(0.5501 -0.8351 0.8351 0.5501 -487.9454 725.0796)" cx="429" cy="815.42" rx="19.2" ry="14.61"/>
		<path d="M424.98,834.84c-2.63,0-5.16-0.69-7.37-2.14c-7.42-4.89-8.35-16.62-2.07-26.15c6.28-9.53,17.42-13.31,24.84-8.42l0,0
			c7.42,4.89,8.35,16.62,2.07,26.15C438.04,830.99,431.22,834.84,424.98,834.84z M432.97,798.98c-5.23,0-11.08,3.4-14.92,9.23
			c-5.37,8.15-4.82,18.01,1.21,21.99c6.04,3.98,15.32,0.58,20.69-7.57c5.37-8.15,4.82-18.01-1.21-21.99l0,0
			C437.02,799.51,435.05,798.98,432.97,798.98z"/>
	</g>
	<path d="M421.31,803.64c-0.7,0-1.33-0.49-1.47-1.21c-1.44-7.25-5.61-13.49-11.15-16.69c-0.72-0.41-0.96-1.33-0.55-2.05
		c0.41-0.72,1.33-0.96,2.05-0.55c6.27,3.62,10.98,10.62,12.59,18.7c0.16,0.81-0.37,1.6-1.18,1.76
		C421.51,803.63,421.41,803.64,421.31,803.64z"/>
	<path d="M404.58,817.82c-4.6,0-9.01-1.08-12.68-3.21c-0.72-0.42-0.96-1.33-0.55-2.05c0.42-0.72,1.33-0.96,2.05-0.55
		c5.53,3.2,13.02,3.7,20.03,1.33c0.79-0.26,1.64,0.16,1.9,0.94c0.27,0.79-0.16,1.64-0.94,1.9
		C411.15,817.28,407.82,817.82,404.58,817.82z"/>
	<polygon points="476.03,852.58 489.69,853.94 483.56,840.89 	"/>
	<g class="st33">
		
			<ellipse transform="matrix(0.7151 -0.699 0.699 0.7151 -2.1916 250.7247)" class="st34" cx="306.49" cy="128.05" rx="27.02" ry="24.76"/>
		<path d="M304.21,155.44c-6.99,0-13.4-2.63-18.12-7.45c-10.12-10.36-9.21-27.72,2.04-38.72c5.43-5.31,12.44-8.36,19.73-8.6
			c7.35-0.24,14.1,2.41,19.02,7.44c10.12,10.36,9.21,27.72-2.04,38.72c-5.43,5.31-12.44,8.36-19.73,8.6
			C304.81,155.44,304.51,155.44,304.21,155.44z M308.76,103.66c-0.27,0-0.54,0-0.81,0.01c-6.54,0.21-12.84,2.96-17.73,7.74
			c-10.06,9.84-10.96,25.3-1.99,34.48c4.33,4.43,10.28,6.75,16.78,6.54c6.54-0.21,12.84-2.96,17.73-7.74
			c10.06-9.84,10.96-25.3,1.99-34.48C320.59,105.97,314.94,103.66,308.76,103.66z"/>
	</g>
	<path class="st33" d="M312.32,147.81c-7.06,0-13.79-2.38-18.53-7.23c-10.17-10.4-8.35-29.38,3.98-41.43l3.5,3.58
		c-10.21,9.98-12.04,26.04-3.9,34.36c8.3,8.49,25,7.29,35.03-2.52l3.5,3.58C329.34,144.54,320.6,147.81,312.32,147.81z"/>
	<path class="st33" d="M325.32,136.76l-0.92,0c-6.6,0-14.82-0.01-19.89-5.2c-7.31-7.47-5.8-20.78-4.81-26.15l4.92,0.9
		c-0.66,3.59-2.36,15.79,3.47,21.75c3.61,3.69,10.66,3.69,16.32,3.7l0.93,0L325.32,136.76z"/>
	<g>
		<path id="f_00000104694759282961440560000001061248384834774936_" class="st35" d="M333.1,114.75
			c4.76,2.54,13.81,20.96,11.44,36.93c-3.1,20.89-29.1,4.81-28.94-15.55C315.69,123.16,324.89,110.36,333.1,114.75z"/>
		<path class="st36" d="M332.97,159.96l-2.87-0.87l1.44,0.43l-1.44-0.43c0.04-0.14,4.15-14.48-3.17-38.13l2.87-0.89
			C337.41,144.7,333.16,159.35,332.97,159.96z"/>
		<path class="st36" d="M321.38,146.6c-2.54,0-4.36-0.85-4.47-0.9l1.28-2.71c0.03,0.01,2.83,1.28,5.94,0.13
			c2.52-0.93,4.61-3.18,6.22-6.69l2.73,1.25c-1.96,4.28-4.64,7.07-7.96,8.28C323.78,146.43,322.51,146.6,321.38,146.6z"/>
		<path class="st36" d="M343.56,152.11c-5.58,0-11.05-3.26-12.29-7.62l2.88-0.82c0.97,3.41,6.29,6,10.94,5.34l0.42,2.97
			C344.87,152.07,344.22,152.11,343.56,152.11z"/>
		<path class="st33" d="M335.67,162.95c-0.3,0-0.58-0.01-0.83-0.03c-9.48-0.74-20.84-12.85-20.73-26.8
			c0.07-9.3,4.52-18.66,10.59-22.27c3.07-1.82,6.22-1.97,9.12-0.42h0c5.61,3,14.62,22.27,12.22,38.47
			C344.59,161.57,338.82,162.95,335.67,162.95z M329.7,115.37c-1.13,0-2.29,0.35-3.48,1.06c-5.14,3.05-9.06,11.53-9.12,19.71
			c-0.1,12.98,10.66,23.22,17.97,23.79c5.5,0.43,7.39-4.37,8-8.47c2.27-15.31-6.51-33.16-10.66-35.38l0,0
			C331.52,115.6,330.62,115.37,329.7,115.37z"/>
	</g>
	<g>
		<path id="f_00000141447573434768046900000012375274306468339381_" class="st35" d="M316.97,99.76c-2.93-4.53-22.05-12-37.76-8.3
			c-20.55,4.84-2.35,29.4,17.92,27.54C310.05,117.81,322.03,107.57,316.97,99.76z"/>
		<path class="st36" d="M273.02,106.48l-1.1-2.79c0.59-0.23,14.84-5.71,40.01-0.18l-0.64,2.93
			C287.1,101.12,273.16,106.42,273.02,106.48z"/>
		<path class="st36" d="M287.48,118.5c-0.09-0.15-2.13-3.74-0.94-8.16c0.93-3.41,3.48-6.31,7.58-8.63l1.47,2.61
			c-3.36,1.89-5.43,4.17-6.15,6.76c-0.89,3.19,0.61,5.88,0.62,5.91L287.48,118.5z"/>
		<path class="st36" d="M287.48,104.08c-4.97-0.98-9.02-7.32-8.65-13.57l3,0.17c-0.27,4.69,2.76,9.77,6.24,10.45L287.48,104.08z"/>
		<path class="st33" d="M294.92,120.6c-12.98,0-24.65-9.67-26.09-18.52c-0.46-2.81-0.4-9.62,10.04-12.08
			c15.94-3.76,35.9,3.6,39.36,8.95c1.79,2.76,1.91,5.92,0.35,9.13c-3.08,6.35-12.04,11.57-21.3,12.42
			C296.48,120.56,295.7,120.6,294.92,120.6z M288.25,91.97c-2.94,0-5.88,0.29-8.7,0.95c-4.03,0.95-8.66,3.23-7.77,8.68
			c1.18,7.23,12.29,17.09,25.21,15.91c8.15-0.75,16.26-5.37,18.88-10.74c1.09-2.25,1.04-4.33-0.17-6.18l0,0
			C313.63,97.36,301,91.97,288.25,91.97z"/>
	</g>
	<g class="st33">
		<ellipse transform="matrix(0.7151 -0.699 0.699 0.7151 20.8455 259.3741)" cx="328.62" cy="104.11" rx="14.61" ry="19.2"/>
		<path d="M333.17,122.71c-5.41,0-11.38-2.53-16.08-7.33c-7.98-8.16-9.3-19.85-2.95-26.06c6.35-6.21,18.01-4.62,25.99,3.54
			c3.81,3.9,6.24,8.72,6.84,13.56c0.62,5-0.76,9.44-3.9,12.5C340.47,121.47,336.96,122.71,333.17,122.71z M324.08,88.49
			c-3.02,0-5.79,0.96-7.83,2.96c-5.17,5.05-3.83,14.84,3,21.82c6.82,6.98,16.58,8.54,21.75,3.49c2.45-2.39,3.52-5.94,3.02-9.99
			c-0.52-4.2-2.66-8.4-6.01-11.84C333.87,90.73,328.68,88.49,324.08,88.49z"/>
	</g>
	<path d="M343.76,100.93c-0.19,0-0.37,0-0.56,0c-0.83-0.02-1.49-0.7-1.47-1.53c0.01-0.83,0.65-1.51,1.53-1.47
		c7.39,0.15,14.38-2.61,18.68-7.34c0.56-0.61,1.51-0.66,2.12-0.1c0.61,0.56,0.66,1.51,0.1,2.12
		C359.39,97.84,351.8,100.93,343.76,100.93z"/>
	<path d="M332.47,91c-0.75,0-1.4-0.57-1.49-1.33c-0.92-8.19,1.45-16.28,6.33-21.64c0.56-0.61,1.51-0.66,2.12-0.1
		c0.61,0.56,0.66,1.51,0.1,2.12c-4.31,4.73-6.39,11.94-5.56,19.28c0.09,0.82-0.5,1.57-1.32,1.66C332.58,90.99,332.52,91,332.47,91z"
		/>
	<polygon points="282.31,142.17 278.08,155.22 292.13,152.01 	"/>
	<g class="st33">
		
			<ellipse transform="matrix(0.8556 -0.5176 0.5176 0.8556 27.4496 473.9091)" class="st34" cx="863.26" cy="187.75" rx="24.76" ry="27.02"/>
		<path d="M865.26,215.7c-2.48,0-5.01-0.36-7.52-1.1c-7-2.05-13.03-6.76-16.96-13.26c-3.93-6.5-5.3-14.02-3.87-21.17
			c1.44-7.21,5.56-13.18,11.58-16.82c6.02-3.64,13.22-4.51,20.28-2.45c7,2.05,13.03,6.76,16.96,13.26c3.93,6.5,5.3,14.02,3.87,21.17
			c-1.44,7.21-5.56,13.18-11.58,16.82C874.14,214.5,869.76,215.7,865.26,215.7z M861.26,162.8c-3.97,0-7.81,1.05-11.22,3.11v0
			c-5.3,3.2-8.92,8.48-10.19,14.85c-1.29,6.42-0.04,13.18,3.5,19.03c3.54,5.85,8.95,10.09,15.23,11.93
			c6.24,1.83,12.58,1.07,17.88-2.14c5.3-3.2,8.92-8.48,10.19-14.85c1.29-6.42,0.04-13.18-3.5-19.03
			c-3.54-5.85-8.95-10.09-15.23-11.93C865.7,163.12,863.46,162.8,861.26,162.8z"/>
	</g>
	<path class="st33" d="M860.6,206.21c-10.25,0-21.15-6.11-27.47-16.56l4.28-2.59c7.39,12.22,22.61,17.65,32.56,11.63
		c10.16-6.15,12.8-22.67,5.54-34.68l4.28-2.59c8.77,14.5,5.39,33.91-7.23,41.55C868.93,205.17,864.82,206.21,860.6,206.21z"/>
	<path class="st33" d="M856.05,193.04c-6.61,0-13.12-2.41-16.39-3.84l2-4.58c3.35,1.46,14.83,5.9,21.97,1.58
		c4.41-2.67,6.03-9.53,7.32-15.05l0.21-0.91l4.87,1.15l-0.21,0.9c-1.51,6.43-3.39,14.42-9.6,18.18
		C863.11,192.35,859.57,193.04,856.05,193.04z"/>
	<g>
		<path id="f_00000050638680122540032260000000878392556913999753_" class="st35" d="M856.37,158.8c3.56-4.05,23.56-8.67,38.56-2.72
			c19.63,7.78-1.95,29.43-21.74,24.64C860.59,177.67,850.23,165.79,856.37,158.8z"/>
		<path class="st36" d="M898.87,171.84c-0.13-0.07-13.15-7.34-37.85-5.6l-0.21-2.99c25.7-1.81,39,5.68,39.56,6L898.87,171.84
			l0.75-1.3L898.87,171.84z"/>
		<path class="st36" d="M882.82,181.63l-2.35-1.86c0.02-0.02,1.89-2.47,1.48-5.76c-0.33-2.67-2.05-5.22-5.1-7.58l1.84-2.37
			c3.72,2.89,5.82,6.13,6.24,9.64C885.47,178.24,882.93,181.49,882.82,181.63z"/>
		<path class="st36" d="M884.92,167.36l-0.14-3c3.54-0.17,7.28-4.76,7.69-9.44l2.99,0.26C894.9,161.44,889.98,167.12,884.92,167.36z
			"/>
		<path class="st33" d="M879.06,182.91c-2.06,0-4.15-0.23-6.22-0.73c-9.04-2.19-17.14-8.66-19.27-15.39
			c-1.08-3.4-0.5-6.51,1.67-8.98l0,0c4.2-4.78,25.02-9.16,40.24-3.12c9.97,3.95,9.04,10.7,8.18,13.41
			C901.23,175.78,890.52,182.91,879.06,182.91z M857.5,159.79L857.5,159.79c-1.46,1.66-1.82,3.71-1.06,6.09
			c1.8,5.7,9.16,11.45,17.11,13.37c12.62,3.06,25.04-5.09,27.26-12.07c1.67-5.26-2.57-8.19-6.42-9.72
			C880,151.77,860.61,156.25,857.5,159.79z"/>
	</g>
	<g>
		<path id="f_00000083056347579768019010000017929329851621601188_" class="st35" d="M838.1,171.09
			c-5.08,1.82-16.71,18.73-16.69,34.87c0.03,21.11,28.09,8.99,30.9-11.17C854.1,181.95,846.86,167.95,838.1,171.09z"/>
		<path class="st36" d="M831.65,215.85c-0.09-0.63-2.18-15.75,8.95-38.99l2.71,1.29c-10.69,22.33-8.71,37.11-8.69,37.26
			L831.65,215.85z"/>
		<path class="st36" d="M846.77,204.44c-1.48,0-3.38-0.28-5.3-1.31c-3.11-1.68-5.35-4.82-6.67-9.35l2.88-0.84
			c1.08,3.72,2.84,6.26,5.22,7.54c2.89,1.56,5.82,0.73,5.85,0.72l0.88,2.87C849.54,204.1,848.41,204.44,846.77,204.44z"/>
		<path class="st36" d="M824.46,206.7c-1.36,0-2.74-0.18-4.06-0.58l0.85-2.88c4.5,1.34,10.14-0.46,11.6-3.69l2.73,1.23
			C833.96,204.39,829.29,206.7,824.46,206.7z"/>
		<path class="st33" d="M830.24,218.53c-0.29,0-0.58-0.01-0.86-0.03c-2.84-0.2-9.46-1.81-9.47-12.53
			c-0.02-16.37,11.69-34.13,17.68-36.28l0,0c3.09-1.11,6.19-0.51,8.96,1.74c5.48,4.45,8.52,14.36,7.23,23.57
			C851.93,208.4,839.63,218.53,830.24,218.53z M840.6,172.15c-0.66,0-1.32,0.12-1.99,0.36l0,0c-4.44,1.59-15.72,17.98-15.7,33.46
			c0.01,4.15,1.17,9.17,6.68,9.54c7.31,0.51,19.44-8.06,21.23-20.92c1.13-8.1-1.52-17.06-6.16-20.83
			C843.35,172.68,841.99,172.15,840.6,172.15z"/>
	</g>
	<g class="st33">
		<ellipse transform="matrix(0.8556 -0.5176 0.5176 0.8556 38.79 460.5591)" cx="845" cy="160.74" rx="19.2" ry="14.61"/>
		<path d="M840.74,178.2c-5.7,0-10.77-2.32-13.45-6.74c-4.6-7.6-0.39-18.59,9.37-24.5c9.76-5.91,21.45-4.53,26.05,3.07h0
			c2.27,3.75,2.5,8.39,0.65,13.08c-1.79,4.54-5.35,8.6-10.02,11.42C849.25,177,844.83,178.2,840.74,178.2z M849.3,146.27
			c-3.56,0-7.47,1.07-11.09,3.26c-8.35,5.05-12.1,14.19-8.36,20.38c3.74,6.19,13.58,7.11,21.93,2.06c4.11-2.48,7.23-6.02,8.78-9.96
			c1.5-3.79,1.35-7.49-0.42-10.42l0,0C858.02,148.08,853.95,146.27,849.3,146.27z"/>
	</g>
	<path d="M843.76,146.95c-0.12,0-0.25-0.02-0.37-0.05c-0.8-0.2-1.29-1.02-1.09-1.82c1.81-7.17,0.73-14.59-2.89-19.86
		c-0.47-0.68-0.3-1.62,0.39-2.09c0.68-0.47,1.62-0.3,2.09,0.39c4.11,5.97,5.35,14.3,3.33,22.3
		C845.04,146.5,844.43,146.95,843.76,146.95z"/>
	<path d="M831.64,155.16c-0.06,0-0.12,0-0.18-0.01c-8.19-0.98-15.53-5.12-19.63-11.09c-0.47-0.68-0.3-1.62,0.39-2.09
		c0.68-0.47,1.62-0.3,2.09,0.39c3.62,5.27,10.17,8.94,17.51,9.81c0.82,0.1,1.41,0.84,1.31,1.67
		C833.04,154.6,832.39,155.16,831.64,155.16z"/>
	<polygon points="871.49,214.51 883.24,221.6 883.32,207.19 	"/>
	<g class="st33">
		
			<ellipse transform="matrix(0.8262 -0.5634 0.5634 0.8262 -142.1834 641.5585)" class="st34" cx="968.66" cy="551.21" rx="27.02" ry="24.76"/>
		<path d="M966.58,578.22c-1.35,0-2.71-0.1-4.06-0.29c-7.27-1.05-13.46-4.83-17.43-10.65l0,0c-8.16-11.96-4.23-28.91,8.77-37.77
			c6.27-4.28,13.71-6.06,20.93-5.02c7.27,1.05,13.46,4.83,17.43,10.65c3.97,5.82,5.23,12.96,3.55,20.11
			c-1.67,7.11-6.04,13.38-12.31,17.65C978.35,576.39,972.48,578.22,966.58,578.22z M947.57,565.59c3.49,5.11,8.95,8.44,15.38,9.37
			c6.48,0.93,13.16-0.67,18.81-4.53c5.65-3.85,9.59-9.49,11.08-15.86c1.48-6.33,0.38-12.62-3.11-17.74s-8.95-8.44-15.38-9.37
			c-6.48-0.94-13.16,0.67-18.81,4.53C943.92,539.92,940.34,554.99,947.57,565.59L947.57,565.59z"/>
	</g>
	<path class="st33" d="M972.2,581.19l-2.82-4.13c11.8-8.05,16.4-23.54,9.84-33.15c-3.2-4.7-8.91-7.78-15.65-8.46
		c-6.76-0.68-13.79,1.08-19.28,4.82l-2.82-4.13c6.44-4.4,14.68-6.46,22.59-5.66c8.22,0.83,15.24,4.7,19.28,10.62
		C991.55,553.11,986.44,571.47,972.2,581.19z"/>
	<path class="st33" d="M971.39,574.69l-4.68-1.75c1.28-3.42,5.08-15.13,0.38-22.02c-2.91-4.26-9.85-5.5-15.42-6.49l-0.92-0.16
		l0.89-4.92l0.91,0.16c6.5,1.16,14.59,2.6,18.68,8.6C977.11,556.74,973.3,569.57,971.39,574.69z"/>
	<g>
		<path id="f_00000014603236619178611690000002875032649617835649_" class="st35" d="M940.13,559.66
			c-4.24-3.33-9.94-23.05-4.82-38.36c6.7-20.02,29.49,0.34,25.78,20.36C958.74,554.42,947.44,565.41,940.13,559.66z"/>
		<path class="st36" d="M944.32,554.99c-3.21-25.57,3.54-39.25,3.83-39.83l2.68,1.36l-1.34-0.68l1.34,0.68
			c-0.07,0.13-6.62,13.53-3.53,38.1L944.32,554.99z"/>
		<path class="st36" d="M946.63,538.8l-2.47-1.71c2.68-3.88,5.8-6.15,9.28-6.76c4.51-0.79,7.89,1.58,8.04,1.68l-1.73,2.45
			c-0.03-0.02-2.57-1.76-5.83-1.16C951.28,533.78,948.82,535.63,946.63,538.8z"/>
		<path class="st36" d="M944.14,531c-0.36-3.53-5.15-7.01-9.84-7.17l0.1-3c6.26,0.21,12.2,4.82,12.72,9.86L944.14,531z"/>
		<path class="st33" d="M944.56,562.74c-1.94,0-3.76-0.64-5.36-1.9c-5-3.93-10.51-24.48-5.31-40.01c3.4-10.17,10.19-9.61,12.95-8.9
			c9.2,2.38,18.27,16.3,15.73,30.01c-1.69,9.14-7.71,17.59-14.31,20.08C946.99,562.5,945.75,562.74,944.56,562.74z M944.15,514.58
			c-4.08,0-6.27,3.78-7.42,7.2c-4.91,14.68,0.61,33.79,4.32,36.7l0,0c1.74,1.37,3.8,1.61,6.14,0.73
			c5.59-2.11,10.93-9.77,12.42-17.82c2.36-12.77-6.44-24.73-13.54-26.56C945.4,514.66,944.75,514.58,944.15,514.58z"/>
	</g>
	<g>
		<path id="f_00000119825231665379986760000010443521615194222219_" class="st35" d="M953.4,577.23
			c2.1,4.97,19.61,15.67,35.73,14.77c21.08-1.18,7.45-28.53-12.84-30.24C963.36,560.67,949.78,568.66,953.4,577.23z"/>
		<path class="st36" d="M991.83,581.73c-6.66,0-18.03-1.2-32.82-7.31l1.15-2.77c22.88,9.46,37.53,6.68,37.68,6.65l0.6,2.94
			C998.2,581.28,995.9,581.73,991.83,581.73z"/>
		<path class="st36" d="M976.23,579.3l-0.99-2.83c3.64-1.28,6.07-3.16,7.23-5.58c1.43-2.99,0.43-5.9,0.42-5.93l2.82-1.03
			c0.06,0.16,1.45,4.05-0.5,8.19C983.69,575.32,980.67,577.74,976.23,579.3z"/>
		<path class="st36" d="M989.33,593l-2.92-0.69c1.09-4.57-1.01-10.1-4.32-11.38l1.08-2.8C987.91,579.96,990.78,586.91,989.33,593z"
			/>
		<path class="st33" d="M987.21,593.55c-15.82,0-32.83-10.11-35.2-15.74l0,0c-1.28-3.03-0.84-6.16,1.25-9.05
			c4.15-5.71,13.88-9.29,23.14-8.51c13.9,1.17,24.93,13.59,24.79,23.1c-0.04,2.85-1.29,9.54-12,10.14
			C988.55,593.54,987.88,593.55,987.21,593.55z M954.78,576.65c1.83,4.34,18.81,14.72,34.26,13.85c4.14-0.23,9.09-1.67,9.17-7.19
			c0.1-7.32-9.11-18.97-22.05-20.06c-8.16-0.69-16.95,2.44-20.46,7.28C954.23,572.55,953.92,574.61,954.78,576.65L954.78,576.65z"/>
	</g>
	<g class="st33">
		<ellipse transform="matrix(0.8262 -0.5634 0.5634 0.8262 -157.799 630.3522)" cx="942.69" cy="570.91" rx="14.61" ry="19.2"/>
		<path d="M946.77,590.27c-6.17,0-12.94-3.74-17.4-10.28c-3.07-4.51-4.63-9.67-4.37-14.55c0.26-5.03,2.4-9.16,6.02-11.63
			c7.34-5.01,18.54-1.41,24.97,8.02c3.07,4.51,4.63,9.67,4.37,14.55c-0.26,5.03-2.4,9.16-6.02,11.63
			C952.1,589.55,949.5,590.27,946.77,590.27z M938.65,554.53c-2.15,0-4.18,0.56-5.93,1.76c-2.83,1.93-4.5,5.23-4.72,9.31
			c-0.22,4.23,1.15,8.74,3.85,12.7c5.5,8.06,14.83,11.31,20.8,7.23c2.83-1.93,4.5-5.23,4.72-9.31c0.22-4.23-1.15-8.74-3.85-12.7
			C949.63,557.83,943.83,554.53,938.65,554.53z"/>
	</g>
	<path d="M906.6,578.74c-0.45,0-0.89-0.2-1.19-0.58c-0.51-0.66-0.38-1.6,0.27-2.1c5.73-4.42,13.99-6.12,22.08-4.54
		c0.81,0.16,1.34,0.95,1.18,1.76c-0.16,0.81-0.95,1.34-1.76,1.18c-7.26-1.42-14.61,0.06-19.67,3.97
		C907.25,578.63,906.92,578.74,906.6,578.74z"/>
	<path d="M926.91,605.24c-0.45,0-0.89-0.2-1.19-0.58c-0.51-0.66-0.38-1.6,0.27-2.1c5.06-3.9,8.37-10.64,8.84-18.02
		c0.05-0.83,0.76-1.44,1.59-1.4c0.83,0.05,1.45,0.77,1.4,1.59c-0.53,8.23-4.27,15.78-10.01,20.2
		C927.56,605.14,927.23,605.24,926.91,605.24z"/>
	<polygon points="994.93,541.53 1001.37,529.42 986.97,530.12 	"/>
	<path class="st37" d="M871.49,348.69c0,0,1.13,50.45-16.94,91.94c-18.07,41.49-27.28,155.32-41.48,163.11
		c-159.44,87.46-437.07,44.65-503.06,0c-21.02-14.22-42.43-270.9-8.66-311.86s255.22-14.53,255.22-14.53s230.37,28.03,252.17,36.14
		C830.54,321.61,871.49,348.69,871.49,348.69z"/>
	<path class="st38" d="M739.56,388.23c8.37,25.04,7.6,56.43-10.47,97.92c-18.07,41.49-24.4,135.55-39.98,139.97
		c-98.12,27.8-25.97-63.33-54.61-185.49C622.38,388.95,731.19,363.19,739.56,388.23z"/>
	<path class="st38" d="M739.56,388.23c8.37,25.04,7.6,56.43-10.47,97.92c-18.07,41.49-23.97,137.52-39.98,139.97
		c-32.1,4.91,32.17-81.7,3.52-203.87C680.51,370.58,731.19,363.19,739.56,388.23z"/>
	<path class="st38" d="M467.77,615.21c8.37-25.04,7.6-56.43-10.47-97.92s-24.4-135.55-39.98-139.97
		c-98.12-27.8-25.97,63.33-54.61,185.49C350.58,614.49,459.4,640.25,467.77,615.21z"/>
	<path class="st38" d="M467.77,615.21c8.37-25.04,7.6-56.43-10.47-97.92s-17.6-109.34-33.66-111.46
		c-35.53-4.7,21.39,61.17,14.5,123.59C430.14,601.88,459.4,640.25,467.77,615.21z"/>
	<path d="M570.71,655.99c-16.52,0-31.49-0.51-44.29-1.21c-92.04-5.05-181.37-25.52-217.24-49.8c-7.82-5.29-13.84-36.81-17.52-62.32
		c-6.3-43.68-9.9-99.42-9.4-145.48c0.42-39.06,3.88-89.21,17.94-106.25c33.9-41.11,247.48-16.15,256.56-15.07
		c9.42,1.15,230.8,28.14,252.51,36.23c21.71,8.08,61.38,34.24,63.05,35.35l0.65,0.43l0.02,0.78c0.01,0.51,0.93,51.25-17.06,92.57
		c-8.52,19.56-15.23,56.3-21.15,88.71c-8,43.82-13.3,70.9-20.99,75.11C737.46,646.93,640.39,655.99,570.71,655.99z M418.45,270.51
		c-51.76,0-101.58,4.92-115.94,22.33c-23.12,28.04-20.18,164.15-7.89,249.4c4.93,34.19,11,56.72,16.23,60.26
		c16.39,11.09,46.05,22.07,83.52,30.92c40.12,9.47,85.83,15.83,132.2,18.37c66.48,3.65,192,2.08,285.77-49.36
		c6.82-3.74,13.26-38.96,19.48-73.02c6.24-34.16,12.69-69.49,21.35-89.37c16.52-37.93,16.86-83.99,16.82-90.52
		c-5.37-3.51-41.9-27.21-61.78-34.61c-21.38-7.96-249.52-35.78-251.82-36.06C555.16,278.69,485.2,270.51,418.45,270.51z"/>
	<path id="fill" class="st1" d="M821.15,587.62c-2.76,8.1-4.18,13.99-8.08,16.13c-159.44,87.46-437.07,44.65-503.06,0
		c-3.66-2.48-5.28-4.1-8.67-18.89C385.06,653.96,696.82,670.55,821.15,587.62z"/>
	<path id="shad" class="st39" d="M484.41,650.59c-79.22-9.83-146.23-27.79-174.4-46.85c-3.66-2.48-5.28-4.1-8.67-18.89
		c33.78,27.88,104.05,48.66,184.03,54.15C485.37,642.3,486.03,646.38,484.41,650.59z"/>
	<path d="M570.71,655.99c-16.52,0-31.49-0.51-44.29-1.21c-92.04-5.05-181.37-25.52-217.24-49.8c-4.25-2.88-5.91-5.05-9.29-19.8
		l-0.99-4.3l3.4,2.81c39.67,32.74,135.35,55.53,243.76,58.05c115.71,2.68,218.24-18.01,274.27-55.38l3.68-2.45l-1.43,4.19
		c-0.39,1.14-0.75,2.23-1.1,3.28c-2.22,6.71-3.82,11.56-7.68,13.68C737.46,646.93,640.39,655.99,570.71,655.99z M303.81,588.71
		c2.74,10.88,4.28,11.92,7.05,13.79c16.39,11.09,46.05,22.07,83.52,30.92c40.12,9.47,85.83,15.83,132.2,18.37
		c66.48,3.65,192,2.08,285.77-49.36c2.71-1.48,4.15-5.56,6.02-11.21c-29.44,18.68-69.39,32.85-118.84,42.15
		c-46.32,8.71-99.42,12.65-153.55,11.38C439.92,642.28,345.82,620.4,303.81,588.71z"/>
	<path id="_x38__00000082340200516810250730000008614154717414629294_" class="st1" d="M402.64,246.49c0,0-96.44,0.66-107.67,33.69
		s39.47,65.39,80.5,82.57c41.04,17.17,136.82,61.43,241.84,59.45c105.03-1.98,157.52-9.94,202.68-27.59
		c43.92-17.16,60.09-33.37,58.72-47.93c-4.23-44.92-110.73-60.34-110.73-60.34S597.94,240.98,402.64,246.49z"/>
	<path id="_x39_" class="st8" d="M402.64,246.49c0,0-96.44,0.66-107.67,33.69s147.42,92.12,301.23,87.51
		c105-3.15,90.37-8.61,135.53-26.26c43.92-17.16,22.21-10.24,20.84-24.8c-4.23-44.92,15.42-30.29,15.42-30.29
		S597.94,240.98,402.64,246.49z"/>
	<path d="M610.56,423.76c-95.34,0-183.36-37.41-226.17-55.61c-3.43-1.46-6.59-2.8-9.49-4.02c-46.58-19.49-92.4-51.91-81.35-84.44
		c11.44-33.65,105.1-34.68,109.08-34.71l0.02,3c-0.95,0.01-95.5,1.03-106.26,32.67c-4.85,14.27,1.95,29.61,20.22,45.62
		c19.41,17,45.57,29.28,59.44,35.08c2.9,1.21,6.07,2.56,9.51,4.02c42.63,18.12,130.27,55.37,225,55.37c2.24,0,4.48-0.02,6.73-0.06
		c100.97-1.91,155.77-9.35,202.16-27.48c39.77-15.54,59.21-31.15,57.77-46.39c-1.16-12.37-11.81-30.34-55.91-45.73
		c-26.71-9.32-53.28-13.23-53.54-13.27l0.43-2.97c4.4,0.64,107.72,16.11,112.01,61.68c1.58,16.74-18.5,33.38-59.67,49.47
		c-46.76,18.27-101.83,25.78-203.2,27.69C615.08,423.74,612.81,423.76,610.56,423.76z"/>
	<path class="st1" d="M393.39,296.69c0,0,138.69,112.13,368.09,52.84c23.12-5.97,17.71-21.14,14.85-36.33
		c-4.86-25.79-48.7-176.38-187.42-176.37c-146.65,0.01-192.88,124.84-200.81,139.38C380.18,290.74,393.39,296.69,393.39,296.69z"/>
	<path id="sh" class="st8" d="M393.39,296.69c0,0,75.91,46.94,91.97,40.96c36.37-13.54,23.18-141.08,103.55-200.81
		c-146.65,0.01-192.88,124.84-200.81,139.38C380.18,290.74,393.39,296.69,393.39,296.69z"/>
	<path d="M629.8,368.33c-7.6,0-15.16-0.18-22.68-0.54c-40.18-1.93-79.26-9-116.17-21.02c-32.85-10.69-57.86-23.41-73.05-32.19
		c-15.56-8.99-24.09-15.65-25.31-16.61c-1.04-0.51-5.96-3.19-7.82-8.71c-1.39-4.13-0.71-8.77,2.02-13.77
		c0.61-1.11,1.48-2.97,2.59-5.32c6.74-14.3,22.51-47.79,53.72-77.96c39.03-37.74,88.09-56.88,145.82-56.88c0,0,0.01,0,0.01,0
		c32.17,0,61.74,8.12,87.89,24.15c21.46,13.15,40.72,31.66,57.22,55c27.18,38.43,40.51,81.2,43.76,98.45
		c0.25,1.32,0.52,2.64,0.78,3.96c2.83,13.91,5.75,28.3-16.73,34.1C717.25,362.51,672.93,368.33,629.8,368.33z M588.93,138.34
		c-0.01,0-0.01,0-0.01,0c-56.92,0-105.28,18.86-143.73,56.04c-30.81,29.79-46.42,62.93-53.09,77.08c-1.17,2.49-2.02,4.29-2.67,5.48
		c-2.31,4.23-2.92,8.05-1.82,11.35c1.6,4.8,6.36,7.02,6.41,7.04l0.32,0.2c0.35,0.28,35.28,28.15,97.68,48.44
		c36.64,11.91,75.45,18.92,115.35,20.83c49.87,2.38,101.6-3.24,153.75-16.71c19.72-5.1,17.32-16.92,14.54-30.6
		c-0.27-1.33-0.54-2.66-0.79-4c-0.09-0.49-9.66-49.76-43.26-97.27c-16.27-23.01-35.23-41.23-56.34-54.17
		C649.58,146.31,620.54,138.34,588.93,138.34z"/>
	<path id="f" class="st40" d="M393.39,296.69c4.3,3.21,138.69,112.13,368.09,52.84c23.12-5.97,17.71-21.14,14.85-36.33
		c-61.39,20.94-115.01,32.25-197.2,21.17c-119.16-16.06-156.92-48.97-186.15-68.29C377.24,289.41,389.09,293.48,393.39,296.69z"/>
	<path id="shadow" class="st41" d="M393.39,296.69c2.33,1.74,42.76,36.59,116,54.75c21.8,5.41,0.45-13.27-7.77-32.42
		c-65.29-17.47-85.82-37.85-108.65-52.93C377.24,289.41,389.09,293.48,393.39,296.69z"/>
	<path d="M627.9,368.67c-5.81,0-11.58-0.11-17.33-0.32c-39.51-1.45-77.86-7.88-114.01-19.11c-58.37-18.13-94.09-43.64-103.64-51.02
		l-0.42-0.32v0c-0.4-0.3-0.87-0.61-1.38-0.94c-2.5-1.64-6.28-4.11-7.29-9.12c-1.13-5.62,1.46-13.01,7.92-22.58l0.83-1.23l1.24,0.82
		c2.82,1.86,5.7,3.84,8.75,5.93c27.65,18.97,69.42,47.64,176.77,62.12c80.71,10.88,133.18,0.5,196.52-21.1l1.64-0.56l0.32,1.7
		c0.25,1.32,0.52,2.64,0.78,3.96c2.83,13.91,5.75,28.3-16.73,34.1C716.39,362.74,671.41,368.67,627.9,368.67z M393.4,268.17
		c-5.32,8.16-7.55,14.57-6.64,19.07c0.76,3.78,3.66,5.68,6,7.2c0.57,0.37,1.09,0.71,1.54,1.05h0l0.46,0.35
		c9.46,7.31,44.81,32.55,102.7,50.53c35.89,11.15,73.99,17.54,113.23,18.98c48.56,1.79,99.18-4.03,150.43-17.27
		c19.72-5.1,17.32-16.92,14.54-30.6c-0.16-0.77-0.31-1.53-0.46-2.3c-63.04,21.37-115.65,31.55-196.26,20.68
		c-108.06-14.57-150.19-43.48-178.07-62.62C398.27,271.47,395.8,269.77,393.4,268.17z"/>
	<path d="M553.82,360.38l-3-0.1c0.03-1.02,3.84-102.67,53.81-189.18l2.6,1.5C557.65,258.44,553.86,359.37,553.82,360.38z"/>
	<path d="M766.89,346.83c-0.04-0.32-4.42-35.7-23.12-73.43c-17.23-34.76-50.84-81.38-113.14-106.1l1.11-2.79
		c63.23,25.08,97.31,72.39,114.77,107.66c18.9,38.19,23.73,72.48,23.77,72.81L766.89,346.83z"/>
	<path d="M389.41,276.95l-2.61-1.48c20.98-37.1,57.03-70.59,101.5-94.3c39.86-21.25,81.25-31.72,110.71-27.99l-0.38,2.98
		c-28.87-3.65-69.59,6.69-108.92,27.66C445.74,207.27,410.12,240.34,389.41,276.95z"/>
	<path d="M623.07,154.94l-2.25-1.99c0.43-0.48,0.84-0.96,1.25-1.44c2.72-3.16,5.53-6.42,11.66-10.04l1.52,2.58
		c-5.71,3.37-8.24,6.3-10.91,9.41C623.92,153.96,623.5,154.45,623.07,154.94z"/>
	
		<ellipse transform="matrix(0.3948 -0.9188 0.9188 0.3948 221.7892 662.4413)" class="st39" cx="613.75" cy="162.86" rx="12.11" ry="16.95"/>
	<path d="M617.66,177.35c-3.04,0-6.23-0.67-9.28-1.98c-9.35-4.02-14.54-12.89-11.58-19.79c1.47-3.43,4.67-5.84,9-6.78
		c4.15-0.9,8.88-0.35,13.32,1.56c4.44,1.91,8.1,4.96,10.3,8.59c2.3,3.79,2.75,7.77,1.28,11.2c-1.47,3.43-4.67,5.84-9,6.78
		C620.4,177.21,619.04,177.35,617.66,177.35z M609.85,151.37c-1.17,0-2.32,0.12-3.41,0.36c-3.36,0.73-5.8,2.52-6.88,5.03
		c-2.31,5.38,2.18,12.49,10.01,15.85c3.87,1.67,7.96,2.16,11.5,1.39c3.36-0.73,5.8-2.52,6.88-5.03l0,0c1.08-2.51,0.7-5.52-1.09-8.46
		c-1.88-3.1-5.05-5.73-8.92-7.39C615.26,151.96,612.48,151.37,609.85,151.37z"/>
	<circle class="st42" cx="512.41" cy="295.21" r="8.15"/>
	<path d="M512.41,304.85c-5.32,0-9.65-4.33-9.65-9.65c0-5.32,4.33-9.65,9.65-9.65s9.65,4.33,9.65,9.65
		C522.06,300.53,517.73,304.85,512.41,304.85z M512.41,288.56c-3.67,0-6.65,2.98-6.65,6.65s2.98,6.65,6.65,6.65s6.65-2.98,6.65-6.65
		S516.07,288.56,512.41,288.56z"/>
	<circle class="st42" cx="487.72" cy="286.79" r="8.15"/>
	<path d="M487.72,297.44c-5.32,0-9.65-4.33-9.65-9.65c0-5.32,4.33-9.65,9.65-9.65s9.65,4.33,9.65,9.65
		C497.37,293.11,493.04,297.44,487.72,297.44z M487.72,281.14c-3.67,0-6.65,2.98-6.65,6.65s2.98,6.65,6.65,6.65s6.65-2.98,6.65-6.65
		S491.39,281.14,487.72,281.14z"/>
	<circle class="st42" cx="462.27" cy="277.38" r="8.15"/>
	<path d="M462.27,288.03c-5.32,0-9.65-4.33-9.65-9.65c0-5.32,4.33-9.65,9.65-9.65c5.32,0,9.65,4.33,9.65,9.65
		C471.91,283.7,467.59,288.03,462.27,288.03z M462.27,271.73c-3.67,0-6.65,2.98-6.65,6.65s2.98,6.65,6.65,6.65s6.65-2.98,6.65-6.65
		S465.93,271.73,462.27,271.73z"/>
	<path class="st8" d="M538.85,747.97c6.24,3.02,38.16,33.24,61.49,18.97c25.62-15.68,22.67-41.56,9.19-45.35
		c-8.92-2.51-17.12-8.65-21.36-16.55c-2.94-5.47-7.03-13.04-14.61-12.88c-7.58,0.16-21.75,26.52-31.08,32.97
		C533.15,731.58,521.72,739.68,538.85,747.97z"/>
	<path class="st1" d="M569.78,721.59c6.24,3.02,48.18,40.83,49.92,19.03c0.78-9.79-2.52-16.88-10.16-19.03
		c-8.92-2.51-17.12-8.65-21.36-16.55c-2.94-5.47-7.03-13.04-14.61-12.88C565.98,692.32,552.64,713.3,569.78,721.59z"/>
	<path d="M586.39,772.27c-16.4,0-33.39-12.4-42.7-19.19c-2.5-1.83-4.48-3.27-5.49-3.76l0,0c-6.22-3.01-9.38-6.28-9.67-10
		c-0.47-6.05,7.06-11.25,13.1-15.43c3.87-2.67,8.85-9.26,13.67-15.63c7.1-9.39,13.23-17.5,18.23-17.6c8.5-0.19,13,8.16,15.96,13.67
		c3.93,7.31,11.76,13.37,20.45,15.81c5.82,1.64,10.04,7.09,11.03,14.22c1.34,9.68-3.17,23.66-19.85,33.86
		C596.43,771.1,591.44,772.27,586.39,772.27z M539.51,746.62c1.25,0.61,3.22,2.04,5.95,4.04c11.64,8.49,35.86,26.16,54.1,15
		c15.44-9.44,19.65-22.15,18.44-30.89c-0.83-6.03-4.15-10.42-8.87-11.74c-9.58-2.7-17.91-9.16-22.28-17.28
		c-2.75-5.11-6.5-12.09-13.06-12.09c-0.06,0-0.13,0-0.19,0c-3.55,0.07-10.4,9.13-15.9,16.41c-4.96,6.56-10.09,13.34-14.35,16.29
		c-5.13,3.54-12.15,8.4-11.81,12.73C531.72,741.62,534.4,744.16,539.51,746.62L539.51,746.62z"/>
	<path d="M606.74,761.61c-2.77,0-7.4-0.56-11.45-3.7l1.84-2.37c5.07,3.94,11.52,2.96,11.58,2.95l0.49,2.96
		C609.08,761.46,608.16,761.61,606.74,761.61z"/>
	<path class="st8" d="M520.37,742.22c15.3,7.94,51.31-43.77,52.87-50.55c1.55-6.78-6.79-13.14-14.75-12.97
		c-7.96,0.18-24.64,30-34.44,37.26C514.25,723.22,502.38,732.89,520.37,742.22z"/>
	<path class="st1" d="M552.27,703.51c11.98,8.62,16.11-3.56,20.14-9.42c2.1-5.72-4.54-13.42-11.25-14.32
		c-4.46-0.59-16.79,9.53-13.94,19.15C547.82,700.95,549.81,701.74,552.27,703.51z"/>
	<path d="M523.96,744.49c-2.48,0-4.7-0.82-6.62-2.45l0,0c-5.54-4.71-8.02-8.69-7.81-12.54c0.29-5.27,5.64-8.9,11.31-12.75
		c0.99-0.67,2-1.36,3-2.06c4.29-3.03,9.77-10.42,15.06-17.58c7.75-10.47,14.44-19.52,19.9-19.63c5.93-0.16,12.65,3.52,15.27,8.31
		c1.46,2.68,1.43,5.39-0.09,7.64c-16.24,24.14-34.68,49.06-48.37,50.95C525.05,744.45,524.5,744.49,523.96,744.49z M559.11,680.46
		c-0.08,0-0.16,0-0.24,0c-3.98,0.08-11.19,9.82-17.55,18.42c-5.44,7.35-11.06,14.94-15.75,18.25c-1.02,0.72-2.04,1.41-3.05,2.09
		c-5.04,3.42-9.8,6.65-10,10.43c-0.15,2.8,2.06,6.1,6.76,10.1l0,0c1.68,1.43,3.62,1.97,5.92,1.65c14.2-1.96,36.69-35.38,46.29-49.65
		c0.89-1.32,0.87-2.84-0.06-4.53C569.38,683.45,563.9,680.46,559.11,680.46z"/>
	<path d="M658.39,303.95c-0.94-0.87-2.19-0.97-3.34-1.31c0.8-0.45,1.77-0.67,2.37-1.46c1.04-1.38,1.73-2.4,1.46-4.4
		c-0.6-4.32-3.49-6.02-8.06-6.06c-1.85-0.01-6,0.16-7.68,0.18c-2.1,0.03-2.64,0.09-4.42,0.09c0.09,1.72,0.07,2.51,0.13,4.42
		c0.1,3.01,0.21,6.88,0.34,10.07c-0.84,1.09-1.53,2.11-2.59,3.02c-2.18,1.87-4.37,3.19-7.28,3.74c-1.21,0.23-2.6,0.17-3.84-0.27
		c-2.31-0.81-3.66-2.3-4.46-4.6c-0.1-0.28-0.09-0.3,0.25-0.38s0.86-0.14,1.29-0.27c2.24-0.63,4.32-1.49,6.25-2.84
		c1.28-0.89,2.38-1.95,3.31-3.19c0.55-0.73,0.96-1.55,1.12-2.44c0.28-1.58-0.26-3-1.4-4c-1.14-0.99-2.29-1.3-3.68-1.35
		c-1.39-0.05-2.65,0.3-3.87,0.93c-1.88,0.96-3.37,2.28-4.62,3.97c-1.03,1.38-1.75,2.86-2.14,4.55s-0.34,3.37-0.06,5.12
		c0.1,0.61,0.31,1.33,0.62,1.95c1.62,3.24,3.9,5.17,7.46,6.01c1.67,0.39,3.31,0.28,4.95-0.07c3.14-0.68,5.58-2.12,7.94-4.31
		c0.26-0.24,0.66-0.86,0.89-1.17c0.02,0.5,0.07,1.62,0.09,2.02c0.05,1.64,0.14,2.94,0.18,4.49c1.75-0.05,2.54-0.03,4.54-0.1
		s6.34-0.13,8.32-0.3c5.07-0.44,8.21-2.52,8.35-7.4C660.88,306.35,659.8,305.25,658.39,303.95z M620.71,304.09
		c0.14-0.84,0.3-1.67,0.68-2.46c0.98-2.02,2.25-3.58,4.12-4.85c0.68-0.46,1.43-0.71,2.23-0.86c0.19-0.04,0.39-0.06,0.58-0.06
		c0.51,0.02,1.02,0.09,1.46,0.36c0.81,0.49,1.06,1.18,0.77,2.07c-0.13,0.42-0.37,0.79-0.64,1.14c-0.88,1.12-1.89,2.06-3.11,2.82
		c-1.63,1.02-3.34,1.63-5.22,2.05c-0.19,0.04-0.36,0.07-0.58,0.09C620.79,304.44,620.67,304.39,620.71,304.09z M644.86,295.84
		c1.52-0.01,3.83-0.14,5.18-0.13c1.78,0.02,2.68,0.66,2.78,2.25c0.11,1.59-0.89,2.38-2.49,2.5s-3.65,0.08-5.33,0.17
		C644.93,299.03,644.88,297.45,644.86,295.84z M651.2,311.02c-1.49,0.13-4,0.13-5.66,0.2c-0.13-1.9-0.22-3.79-0.29-5.69
		c1.62,0,4.1-0.16,5.55-0.15c2.03,0.02,3.25,0.74,3.4,2.65C654.34,309.95,653.24,310.84,651.2,311.02z"/>
	<path d="M672.91,288.78c-1.53,0.09-4.71,0.62-6.35,0.75c-1.64,0.13-2.76,0.33-4.29,0.42c0.23,1.76,0.29,2.5,0.54,4.46
		c0.62,4.93,1.3,11.26,1.62,16.17c0.14,2.14,0.2,2.78,0.32,4.67c2.03-0.2,4.07-0.32,6.11-0.47c-0.11-1.67-0.2-2.9-0.32-4.7
		c-0.07-0.98-0.24-2.75-0.3-3.86c1.29-0.19,3.57-0.37,4.71-0.6c5.57-1.13,9.02-4.22,8.14-9.98
		C682.21,289.88,678.45,288.47,672.91,288.78z M674.11,300.46c-1.17,0.22-3.12,0.36-4.41,0.54c-0.28-2.17-0.53-4.33-0.78-6.5
		c1.27-0.1,3.23-0.44,4.37-0.52c2.21-0.16,3.45,0.62,3.73,2.74C677.3,298.84,676.3,300.04,674.11,300.46z"/>
	<path d="M698.13,295.7c-1.27,0.19-4,0.6-5.52,0.82c-0.31-1.68-0.57-3.36-0.77-5.05c1.91-0.25,5.24-0.81,6.84-1.07
		c2.33-0.37,3.25-0.5,5.29-0.8c-0.29-1.78-0.55-3.56-0.77-5.35c-2.07,0.31-2.95,0.43-5.33,0.8c-1.95,0.31-6.5,1-8.52,1.25
		c-2.02,0.25-2.69,0.38-4.44,0.54c0.35,1.88,0.34,2.31,0.71,4.53c0.71,4.36,1.83,11.42,2.42,15.65c0.4,2.84,0.42,3.16,0.74,5.55
		c2.01-0.32,4.03-0.5,6.05-0.72c-0.26-2-0.43-3.28-0.73-5.51c-0.12-0.87-0.51-3.35-0.65-4.49c1.52-0.3,4.2-0.74,5.49-0.95
		c2.08-0.35,3.11-0.48,4.97-0.77c-0.29-1.72-0.55-3.45-0.79-5.18C701.25,295.23,700.24,295.39,698.13,295.7z"/>
</g>
</svg>
